<?xml version="1.0" encoding="UTF-8" standalone="no"?>
<!-- Generator: Adobe Illustrator 16.0.0, SVG Export Plug-In . SVG Version: 6.00 Build 0)  -->

<svg
   version="1.1"
   id="Capa_1"
   x="0px"
   y="0px"
   width="1024"
   height="1024"
   viewBox="0 0 1024 1024"
   xml:space="preserve"
   sodipodi:docname="logo.svg"
   inkscape:version="1.3 (0e150ed6c4, 2023-07-21)"
   inkscape:export-filename="logo-32px.png"
   inkscape:export-xdpi="3"
   inkscape:export-ydpi="3"
   xmlns:inkscape="http://www.inkscape.org/namespaces/inkscape"
   xmlns:sodipodi="http://sodipodi.sourceforge.net/DTD/sodipodi-0.dtd"
   xmlns:xlink="http://www.w3.org/1999/xlink"
   xmlns="http://www.w3.org/2000/svg"
   xmlns:svg="http://www.w3.org/2000/svg"><defs
   id="defs17">&#10;	&#10;	&#10;<linearGradient
   id="linearGradient38893"><stop
     style="stop-color:#002000;stop-opacity:1"
     offset="0"
     id="stop38895" /><stop
     id="stop38899"
     offset="0.37583444"
     style="stop-color:#000000;stop-opacity:1" /><stop
     style="stop-color:#00ff00;stop-opacity:0;"
     offset="1"
     id="stop38897" /></linearGradient><linearGradient
   id="linearGradient38881"><stop
     id="stop38883"
     offset="0"
     style="stop-color:#00ff00;stop-opacity:1" /><stop
     style="stop-color:#00ff00;stop-opacity:1"
     offset="0.25"
     id="stop38885" /><stop
     style="stop-color:#ffffff;stop-opacity:1"
     offset="0.5"
     id="stop38887" /><stop
     id="stop38889"
     offset="0.75"
     style="stop-color:#00ff26;stop-opacity:1" /><stop
     id="stop38891"
     offset="1"
     style="stop-color:#7bff7b;stop-opacity:1" /></linearGradient><linearGradient
   id="linearGradient23522"><stop
     id="stop23524"
     offset="0"
     style="stop-color:#00ff00;stop-opacity:1;" /><stop
     id="stop23526"
     offset="1"
     style="stop-color:#00ff00;stop-opacity:0;" /></linearGradient><linearGradient
   gradientUnits="userSpaceOnUse"
   y2="520.22064"
   x2="560.58069"
   y1="881.77991"
   x1="560.58069"
   id="linearGradient23536"
   xlink:href="#linearGradient23522" /><linearGradient
   y2="180.39453"
   x2="481.58957"
   y1="403.81641"
   x1="481.58957"
   gradientUnits="userSpaceOnUse"
   id="linearGradient28316"
   xlink:href="#linearGradient38881" /><linearGradient
   y2="599.50781"
   x2="473.36343"
   y1="403.81641"
   x1="473.36343"
   gradientUnits="userSpaceOnUse"
   id="linearGradient34181"
   xlink:href="#linearGradient38881" /><radialGradient
   r="3163.4216"
   fy="90.42733"
   fx="454.5"
   cy="90.42733"
   cx="454.5"
   gradientTransform="matrix(1.3463696,0,0,0.18948127,-157.425,731.04228)"
   gradientUnits="userSpaceOnUse"
   id="radialGradient38801"
   xlink:href="#linearGradient38893" /><linearGradient
   gradientUnits="userSpaceOnUse"
   y2="321.30063"
   x2="445.43314"
   y1="108.75977"
   x1="445.43314"
   id="linearGradient38835"
   xlink:href="#linearGradient23522" /><clipPath
   clipPathUnits="userSpaceOnUse"
   id="clipPath23"><rect
     style="fill:#999999;stroke:none;stroke-width:19.0562"
     id="rect24"
     width="490.94165"
     height="267.81674"
     x="595.85071"
     y="159.88354"
     ry="55.557671" /></clipPath></defs><sodipodi:namedview
   id="namedview17"
   pagecolor="#505050"
   bordercolor="#ffffff"
   borderopacity="1"
   inkscape:showpageshadow="0"
   inkscape:pageopacity="0"
   inkscape:pagecheckerboard="1"
   inkscape:deskcolor="#505050"
   inkscape:zoom="0.5"
   inkscape:cx="461"
   inkscape:cy="460"
   inkscape:window-width="2560"
   inkscape:window-height="1529"
   inkscape:window-x="-8"
   inkscape:window-y="-8"
   inkscape:window-maximized="1"
   inkscape:current-layer="Capa_1" />&#10;&#10;&#10;&#10;&#10;&#10;&#10;&#10;&#10;&#10;&#10;&#10;&#10;&#10;&#10;&#10;&#10;<g
   id="g24"
   transform="matrix(1.1159773,0,0,1.1072971,-5.0242336,3.3569798)"><path
     id="path2"
     d="m 416.66163,10.011403 c -188.0989,1.5 -338.298401,154.600367 -336.398401,342.699167 0.6,54.1999 13.9001,105.3996 37.000001,150.5996 46.1009,89.8999 70.3007,189.2001 70.3007,290 v 90.4004 c 0,13.8 11.2,25 25,25 h 351.7012 c 13.8,0 25,-11.2 25,-25 v -88.0996 h 98.1992 c 39.3,0 71.3984,-32.1015 71.3984,-71.4004 v -125 l 57.5,-1.0996 c 22.8,-0.4 37.2,-24.8014 26.5,-44.9004 l -62.7988,-118.4004 c -14,-26.399 -21.3008,-55.7997 -21.3008,-85.5996 0,-188.2998 -153.4007,-340.699167 -342.1015,-339.199167 z"
     style="fill:#4d4d4d;stroke:#000000;stroke-width:22.4518;stroke-dasharray:none"
     inkscape:export-filename=".\path2.png"
     inkscape:export-xdpi="1.6875"
     inkscape:export-ydpi="1.6875" /><rect
     style="fill:#999999;stroke:#4d4d4d;stroke-width:19.0562"
     id="rect17"
     width="490.94165"
     height="267.81674"
     x="176.80789"
     y="147.14546"
     ry="55.557667" /><g
     transform="matrix(1,0,0,1.2749304,-428.57092,-120.79778)"
     id="Wed Mar  4 10:31:08 2015"
     clip-path="url(#clipPath23)"><g
       style="stroke:none"
       transform="translate(-23.52346,109.1757)"
       id="g38825" /><g
       id="g20"
       transform="translate(298.3496,15.911976)"><path
         style="fill:url(#linearGradient28316);fill-opacity:1"
         d="m 21.029297,180.39453 0.515625,4.68359 h 13.220703 l -0.5,-4.68359 z m 794.144533,0 -0.42969,4.68359 h 13.2207 l 0.44336,-4.68359 z m 19.85351,0 -0.45312,4.68359 h 13.2207 l 0.4668,-4.68359 z m -813.224606,7.02344 0.513672,4.66797 h 13.197266 l -0.498047,-4.66797 z m 19.81836,0 0.490234,4.66797 h 13.197266 l -0.47461,-4.66797 z m 178.363286,0 0.27929,4.66797 h 13.19531 l -0.26171,-4.66797 z m 594.54492,0 -0.42774,4.66797 h 13.19727 l 0.44336,-4.66797 z m 19.81836,0 -0.45118,4.66797 h 13.19727 l 0.4668,-4.66797 z m -811.773441,6.99805 0.511719,4.65039 h 13.171874 l -0.496093,-4.65039 z m 19.78125,0 0.490234,4.65039 h 13.171875 l -0.472656,-4.65039 z m 19.783203,0 0.464844,4.65039 h 13.173828 l -0.449219,-4.65039 z m 158.263668,0 0.27735,4.65039 h 13.17383 l -0.26172,-4.65039 z m 593.48633,0 -0.42578,4.65039 h 13.17383 l 0.4414,-4.65039 z m 19.78321,0 -0.44922,4.65039 h 13.17382 l 0.46485,-4.65039 z m 19.7832,0 -0.47266,4.65039 h 13.17188 l 0.49023,-4.65039 z m -830.113283,6.97265 0.509765,4.63477 H 37 l -0.494141,-4.63477 z m 19.746094,0 0.488281,4.63477 h 13.148437 l -0.470703,-4.63477 z m 19.748047,0 0.464843,4.63477 h 13.148438 l -0.447266,-4.63477 z m 138.234372,0 0.30078,4.63477 h 13.14844 l -0.2832,-4.63477 z m 19.74805,0 0.27734,4.63477 h 13.14844 l -0.25976,-4.63477 z m 592.43164,0 -0.42383,4.63477 h 13.15039 l 0.43946,-4.63477 z m 19.74805,0 -0.44727,4.63477 h 13.14844 l 0.46484,-4.63477 z m 19.74804,0 -0.4707,4.63477 h 13.14844 l 0.48633,-4.63477 z m -828.640621,6.94727 0.507812,4.61914 h 13.126953 l -0.492187,-4.61914 z m 19.71289,0 0.484375,4.61914 h 13.126954 l -0.46875,-4.61914 z m 19.712891,0 0.460938,4.61914 h 13.126953 l -0.445313,-4.61914 z m 137.98828,0 0.29883,4.61914 h 13.12695 l -0.2832,-4.61914 z m 19.71289,0 0.27539,4.61914 h 13.12696 l -0.25977,-4.61914 z m 492.81836,0 -0.30664,4.61914 h 13.12695 l 0.32227,-4.61914 z m 98.5625,0 -0.42187,4.61914 h 13.12695 l 0.4375,-4.61914 z m 19.71289,0 -0.44531,4.61914 h 13.125 l 0.46289,-4.61914 z m 19.71289,0 -0.46875,4.61914 h 13.12696 l 0.48437,-4.61914 z m -827.171872,6.92383 0.507812,4.60156 h 13.103516 l -0.492188,-4.60156 z m 19.677734,0 0.484375,4.60156 h 13.103515 l -0.46875,-4.60156 z m 19.677734,0 0.460938,4.60156 h 13.103515 l -0.445312,-4.60156 z m 137.746094,0 0.29687,4.60156 h 13.10352 l -0.2832,-4.60156 z m 19.67773,0 0.27344,4.60156 h 13.10352 l -0.25977,-4.60156 z m 157.42188,0 0.0879,4.60156 h 13.10352 l -0.0723,-4.60156 h -13.11914 z m 157.42187,0 -0.0957,4.60156 h 13.10352 l 0.11133,-4.60156 z m 177.10157,0 -0.30664,4.60156 h 13.10351 l 0.32031,-4.60156 z m 98.38867,0 -0.42188,4.60156 h 13.10352 l 0.43555,-4.60156 z m 19.67773,0 -0.44531,4.60156 h 13.10352 l 0.46093,-4.60156 z m 19.67774,0 -0.46875,4.60156 h 13.10351 l 0.48438,-4.60156 z m -825.708987,6.90039 0.505859,4.58593 h 13.080079 l -0.490235,-4.58593 z m 19.642578,0 0.482422,4.58593 h 13.080078 l -0.466797,-4.58593 z m 19.644531,0 0.457032,4.58593 h 13.080078 l -0.44336,-4.58593 z m 19.642579,0 0.435547,4.58593 h 13.080078 l -0.419922,-4.58593 z m 19.642579,0 0.41211,4.58593 h 13.08008 l -0.39649,-4.58593 z m 78.57226,0 0.32032,4.58593 h 13.08008 l -0.30469,-4.58593 z m 19.64258,0 0.29688,4.58593 h 13.08008 l -0.28125,-4.58593 z m 19.64258,0 0.27539,4.58593 h 13.07813 l -0.25782,-4.58593 z m 19.64453,0 0.25,4.58593 h 13.08008 l -0.23633,-4.58593 z m 19.64258,0 0.22656,4.58593 h 13.08008 l -0.21094,-4.58593 z m 117.85742,0 0.0899,4.58593 h 13.07812 l -0.0723,-4.58593 h -13.09571 z m 157.14453,0 -0.0957,4.58593 h 13.08008 l 0.11133,-4.58593 z m 19.64258,0 -0.11914,4.58593 h 13.08008 l 0.13476,-4.58593 z m 157.14453,0 -0.30469,4.58593 h 13.08008 l 0.32032,-4.58593 z m 98.21485,0 -0.41993,4.58593 h 13.08008 l 0.43555,-4.58593 z m 19.64257,0 -0.4414,4.58593 h 13.07812 l 0.45899,-4.58593 z m 19.64454,0 -0.4668,4.58593 h 13.08008 l 0.48242,-4.58593 z m -824.250004,6.875 0.501953,4.56836 h 13.05664 l -0.486328,-4.56836 z m 19.607422,0 0.480468,4.56836 h 13.056641 l -0.464844,-4.56836 z m 19.609374,0 0.457032,4.56836 h 13.05664 l -0.441406,-4.56836 z m 19.607422,0 0.433594,4.56836 h 13.056641 l -0.417969,-4.56836 z m 19.609376,0 0.41016,4.56836 h 13.05664 l -0.39454,-4.56836 z m 78.43164,0 0.32031,4.56836 h 13.05664 l -0.30468,-4.56836 z m 19.60938,0 0.29492,4.56836 h 13.05664 l -0.2793,-4.56836 z m 19.60742,0 0.27343,4.56836 h 13.05665 l -0.25782,-4.56836 z m 19.60937,0 0.25,4.56836 h 13.05664 l -0.23437,-4.56836 z m 19.60742,0 0.22657,4.56836 h 13.05664 l -0.21094,-4.56836 z m 98.04297,0 0.11133,4.56836 h 13.05664 l -0.0957,-4.56836 z m 19.60742,0 0.0879,4.56836 h 13.05859 l -0.0742,-4.56836 H 379.334 Z m 156.86719,0 -0.0957,4.56836 h 13.05664 l 0.11133,-4.56836 z m 19.60938,0 -0.11914,4.56836 h 13.05664 l 0.13476,-4.56836 z m 156.86523,0 -0.30273,4.56836 h 13.05664 l 0.31836,-4.56836 z m 98.04297,0 -0.41797,4.56836 h 13.05664 l 0.4336,-4.56836 z m 19.60742,0 -0.4414,4.56836 h 13.05664 l 0.45703,-4.56836 z m 19.60938,0 -0.46485,4.56836 h 13.05664 l 0.48047,-4.56836 z m 19.60742,0 -0.48633,4.56836 h 13.05664 l 0.50195,-4.56836 z m -842.404298,6.84961 0.5,4.55468 H 40.673828 L 40.1875,235.88477 Z m 19.574219,0 0.476562,4.55468 h 13.035156 l -0.46289,-4.55468 z m 19.572265,0 0.455078,4.55468 h 13.035157 l -0.439453,-4.55468 z m 19.574219,0 0.433594,4.55468 h 13.033203 l -0.417969,-4.55468 z m 19.574215,0 0.41016,4.55468 h 13.0332 l -0.39453,-4.55468 z m 78.29493,0 0.31836,4.55468 h 13.0332 l -0.30274,-4.55468 z m 19.57421,0 0.29493,4.55468 h 13.0332 l -0.2793,-4.55468 z m 19.57422,0 0.27149,4.55468 h 13.0332 l -0.25586,-4.55468 z m 19.57227,0 0.25,4.55468 h 13.0332 L 255.5,235.88477 Z m 19.57422,0 0.22656,4.55468 h 13.0332 l -0.21093,-4.55468 z m 97.86914,0 0.11133,4.55468 h 13.0332 l -0.0957,-4.55468 z m 19.57422,0 0.0879,4.55468 h 13.0332 l -0.0723,-4.55468 h -13.04882 z m 19.57422,0 0.0645,4.55468 h 13.0332 l -0.0488,-4.55468 H 399.0411 Z m 137.01562,0 -0.0957,4.55468 h 13.03515 l 0.11133,-4.55468 z m 19.57422,0 -0.11719,4.55468 h 13.03321 l 0.13281,-4.55468 z m 156.5918,0 -0.30274,4.55468 h 13.0332 l 0.31836,-4.55468 z m 97.86914,0 -0.41797,4.55468 h 13.0332 l 0.43359,-4.55468 z m 19.57226,0 -0.43945,4.55468 h 13.0332 l 0.45703,-4.55468 z m 19.57422,0 -0.46289,4.55468 h 13.03516 l 0.47656,-4.55468 z m 19.57422,0 -0.48633,4.55468 h 13.03516 l 0.5,-4.55468 z m -840.923828,6.82617 0.5,4.53906 h 13.011719 l -0.484375,-4.53906 z m 19.541016,0 0.476562,4.53906 h 13.009766 l -0.460938,-4.53906 z m 19.539062,0 0.453125,4.53906 h 13.011719 l -0.439453,-4.53906 z m 19.539062,0 0.431641,4.53906 h 13.009766 l -0.416016,-4.53906 z m 19.539068,0 0.4082,4.53906 h 13.01172 l -0.39258,-4.53906 z m 19.53906,0 0.38672,4.53906 h 13.00976 l -0.36914,-4.53906 z m 58.61914,0 0.3164,4.53906 h 13.00977 l -0.30078,-4.53906 z m 19.53906,0 0.29297,4.53906 h 13.01172 l -0.2793,-4.53906 z m 19.53906,0 0.27149,4.53906 h 13.00976 l -0.2539,-4.53906 z m 19.53907,0 0.24804,4.53906 h 13.01172 l -0.23242,-4.53906 z m 19.54101,0 0.22461,4.53906 h 13.00977 l -0.20899,-4.53906 z m 78.15625,0 0.13477,4.53906 h 13.00976 l -0.11718,-4.53906 z m 19.53906,0 0.11133,4.53906 h 13.01172 l -0.0957,-4.53906 z m 19.54102,0 0.0859,4.53906 h 13.01172 l -0.0723,-4.53906 h -13.02539 z m 19.53906,0 0.0645,4.53906 h 13.01172 l -0.0508,-4.53906 H 399.1387 Z m 136.77539,0 -0.0957,4.53906 h 13.01172 l 0.10937,-4.53906 z m 19.53906,0 -0.11718,4.53906 h 13.00976 l 0.13477,-4.53906 z m 19.53907,0 -0.14063,4.53906 h 13.01172 l 0.15625,-4.53906 z m 117.23633,0 -0.27735,4.53906 h 13.01172 l 0.29297,-4.53906 z m 19.54101,0 -0.30273,4.53906 h 13.01172 l 0.3164,-4.53906 z m 19.53906,0 -0.32421,4.53906 h 13.00976 l 0.33984,-4.53906 z m 19.53907,0 L 750.5,247.25 h 13.01172 l 0.36133,-4.53906 z m 58.61718,0 -0.41406,4.53906 h 13.00977 l 0.43164,-4.53906 z m 19.54102,0 -0.43945,4.53906 h 13.01171 l 0.45313,-4.53906 z m 19.53906,0 -0.46094,4.53906 h 13.00977 l 0.47656,-4.53906 z m 19.53906,0 -0.48437,4.53906 h 13.01172 l 0.5,-4.53906 z m -839.445308,6.80273 0.498047,4.52149 H 42.125 l -0.482422,-4.52149 z m 19.503906,0 0.476563,4.52149 h 12.988281 l -0.460938,-4.52149 z m 19.50586,0 0.453124,4.52149 h 12.988282 l -0.4375,-4.52149 z m 19.505859,0 0.427734,4.52149 h 12.988279 l -0.41406,-4.52149 z m 19.503903,0 0.40625,4.52149 h 12.98828 l -0.39062,-4.52149 z m 19.50586,0 0.38282,4.52149 h 12.98828 l -0.36719,-4.52149 z m 19.50586,0 0.35938,4.52149 h 12.98828 l -0.3457,-4.52149 z m 19.50391,0 0.33789,4.52149 H 178.5 l -0.32227,-4.52149 z m 19.50586,0 0.31445,4.52149 h 12.98828 l -0.30078,-4.52149 z m 19.5039,0 0.29297,4.52149 h 12.98828 l -0.27734,-4.52149 z m 19.50586,0 0.26953,4.52149 h 12.98829 l -0.25391,-4.52149 z m 19.50586,0 0.2461,4.52149 h 12.98828 l -0.23242,-4.52149 z m 19.50391,0 0.22461,4.52149 h 12.98828 l -0.20899,-4.52149 z m 19.50586,0 0.20117,4.52149 h 12.98828 l -0.18555,-4.52149 z m 58.51562,0 0.13282,4.52149 h 12.98828 l -0.11914,-4.52149 z m 19.50391,0 0.11133,4.52149 h 12.98828 l -0.0957,-4.52149 z m 19.50586,0 0.0879,4.52149 h 12.98828 l -0.0723,-4.52149 h -13.00391 z m 19.50586,0 0.0644,4.52149 h 12.98828 l -0.0508,-4.52149 h -13.00195 z m 19.5039,0 0.043,4.52149 h 12.98633 l -0.0254,-4.52149 h -13.00391 z m 19.50586,0 0.0176,4.52149 h 12.98828 l -0.004,-4.52149 h -13.00196 z m 19.50391,0 -0.004,4.52149 h 12.98829 l 0.0195,-4.52149 h -13.00391 z m 58.51562,0 -0.0723,4.52149 h 12.98828 l 0.0879,-4.52149 h -13.00391 z m 19.50586,0 -0.0957,4.52149 h 12.98828 l 0.11133,-4.52149 z m 19.50391,0 -0.11719,4.52149 h 12.98828 l 0.13282,-4.52149 z m 19.50586,0 -0.14063,4.52149 h 12.98829 l 0.15625,-4.52149 z m 117.03125,0 -0.27734,4.52149 h 12.98828 l 0.29297,-4.52149 z m 19.50391,0 -0.29883,4.52149 h 12.98828 l 0.31445,-4.52149 z m 19.50586,0 -0.32227,4.52149 h 12.98828 l 0.33789,-4.52149 z m 19.50585,0 -0.3457,4.52149 h 12.98828 l 0.35938,-4.52149 z m 58.51563,0 -0.41602,4.52149 h 12.98829 l 0.42968,-4.52149 z m 19.50391,0 -0.4375,4.52149 h 12.98828 l 0.45312,-4.52149 z m 19.50586,0 -0.46094,4.52149 h 12.98828 l 0.47461,-4.52149 z m 19.5039,0 -0.48242,4.52149 h 12.98828 l 0.49805,-4.52149 z m -837.972654,6.7793 0.496093,4.50586 h 12.964844 l -0.480469,-4.50586 z m 19.470703,0 0.472656,4.50586 h 12.966797 l -0.458984,-4.50586 z m 19.470703,0 0.451172,4.50586 h 12.964844 l -0.435547,-4.50586 z m 19.470703,0 0.427734,4.50586 h 12.966801 l -0.41407,-4.50586 z m 19.470705,0 0.40625,4.50586 h 12.96484 l -0.39062,-4.50586 z m 19.4707,0 0.38281,4.50586 h 12.9668 l -0.36719,-4.50586 z m 19.47266,0 0.35937,4.50586 h 12.96485 l -0.34375,-4.50586 z m 19.4707,0 0.33594,4.50586 h 12.9668 l -0.32227,-4.50586 z m 19.4707,0 0.31446,4.50586 h 12.96484 l -0.29883,-4.50586 z m 19.47071,0 0.29101,4.50586 h 12.9668 l -0.27734,-4.50586 z m 19.4707,0 0.26953,4.50586 h 12.96484 l -0.2539,-4.50586 z m 19.4707,0 0.2461,4.50586 h 12.96484 l -0.23047,-4.50586 z m 19.47071,0 0.22461,4.50586 h 12.96484 l -0.20899,-4.50586 z m 19.4707,0 0.20117,4.50586 h 12.96485 l -0.18555,-4.50586 z m 58.41406,0 0.13281,4.50586 h 12.96485 l -0.11719,-4.50586 z m 19.4707,0 0.10938,4.50586 h 12.96484 l -0.0937,-4.50586 h -12.98047 z m 19.47071,0 0.0879,4.50586 h 12.96484 l -0.0723,-4.50586 H 379.8613 Z m 19.4707,0 0.0645,4.50586 h 12.96485 l -0.0488,-4.50586 h -12.98047 z m 19.4707,0 0.043,4.50586 h 12.96485 l -0.0273,-4.50586 h -12.98047 z m 19.47071,0 0.0195,4.50586 h 12.96484 l -0.004,-4.50586 h -12.98047 z m 19.4707,0 -0.004,4.50586 h 12.9668 l 0.0195,-4.50586 h -12.98242 z m 58.41406,0 -0.0723,4.50586 h 12.96484 l 0.0879,-4.50586 h -12.98047 z m 19.47071,0 -0.0957,4.50586 h 12.9668 l 0.10938,-4.50586 h -12.98047 z m 19.4707,0 -0.11719,4.50586 h 12.96485 l 0.13281,-4.50586 z m 19.4707,0 -0.14062,4.50586 h 12.96679 l 0.1543,-4.50586 z m 116.82617,0 -0.27734,4.50586 h 12.9668 l 0.29101,-4.50586 z m 19.47071,0 -0.29883,4.50586 h 12.96484 l 0.31446,-4.50586 z m 19.4707,0 -0.32227,4.50586 h 12.9668 l 0.33594,-4.50586 z m 19.4707,0 -0.34375,4.50586 h 12.96485 l 0.35937,-4.50586 z m 38.94336,0 -0.39062,4.50586 h 12.96484 l 0.40625,-4.50586 z m 19.47071,0 -0.41407,4.50586 h 12.9668 l 0.42773,-4.50586 z m 19.4707,0 -0.43555,4.50586 h 12.96485 l 0.45117,-4.50586 z m 19.4707,0 -0.45898,4.50586 h 12.9668 l 0.47265,-4.50586 z m 19.47071,0 -0.48047,4.50586 h 12.96484 l 0.49609,-4.50586 z m -836.505864,6.75391 0.494141,4.49023 h 12.941406 l -0.478515,-4.49023 z m 19.435547,0 0.472656,4.49023 h 12.941407 l -0.455078,-4.49023 z m 19.4375,0 0.449219,4.49023 h 12.943359 l -0.435547,-4.49023 z m 19.4375,0 0.425781,4.49023 h 12.943356 l -0.41211,-4.49023 z m 19.435547,0 0.4043,4.49023 h 12.94336 l -0.38868,-4.49023 z m 19.4375,0 0.38086,4.49023 h 12.94336 l -0.36719,-4.49023 z m 19.4375,0 0.35742,4.49023 h 12.94336 l -0.34375,-4.49023 z m 19.43555,0 0.33593,4.49023 h 12.94336 l -0.32031,-4.49023 z m 19.4375,0 0.3125,4.49023 h 12.94336 l -0.29883,-4.49023 z m 19.4375,0 0.28906,4.49023 h 12.94336 l -0.27539,-4.49023 z m 19.43554,0 0.26953,4.49023 h 12.94141 l -0.25195,-4.49023 z m 19.4375,0 0.2461,4.49023 h 12.9414 l -0.23047,-4.49023 z m 19.4375,0 0.22266,4.49023 h 12.94141 l -0.20704,-4.49023 z m 19.43555,0 0.20117,4.49023 h 12.94336 l -0.18555,-4.49023 z m 58.31055,0 0.13281,4.49023 h 12.94336 l -0.11719,-4.49023 z m 19.4375,0 0.10937,4.49023 h 12.94336 l -0.0937,-4.49023 h -12.95898 z m 19.4375,0 0.0859,4.49023 h 12.94336 l -0.0723,-4.49023 h -12.95703 z m 19.43554,0 0.0645,4.49023 h 12.94336 l -0.0488,-4.49023 H 399.4278 Z m 19.4375,0 0.041,4.49023 h 12.94336 l -0.0254,-4.49023 H 418.8652 Z m 19.4375,0 0.0195,4.49023 h 12.9414 l -0.004,-4.49023 h -12.95704 z m 19.4375,0 -0.004,4.49023 h 12.9414 l 0.0195,-4.49023 h -12.95704 z m 38.87305,0 -0.0488,4.49023 h 12.94336 l 0.0625,-4.49023 h -12.95703 z m 19.4375,0 -0.0723,4.49023 h 12.94336 l 0.0859,-4.49023 h -12.95703 z m 19.43555,0 -0.0937,4.49023 h 12.94336 l 0.10937,-4.49023 h -12.95898 z m 19.4375,0 -0.11719,4.49023 H 567.75 l 0.13086,-4.49023 z m 19.4375,0 -0.14063,4.49023 h 12.94336 l 0.1543,-4.49023 z m 19.43555,0 -0.16211,4.49023 h 12.94335 l 0.17774,-4.49023 z m 77.74804,0 -0.25195,4.49023 h 12.94141 l 0.26953,-4.49023 z m 19.4375,0 -0.27539,4.49023 h 12.94141 l 0.29101,-4.49023 z m 19.43555,0 -0.29688,4.49023 h 12.94336 l 0.3125,-4.49023 z m 19.4375,0 -0.32031,4.49023 h 12.94336 l 0.33593,-4.49023 z m 19.4375,0 -0.34375,4.49023 h 12.94336 l 0.35742,-4.49023 z m 38.87305,0 -0.38868,4.49023 h 12.94336 l 0.4043,-4.49023 z m 19.4375,0 -0.41211,4.49023 h 12.94336 l 0.42578,-4.49023 z m 19.4375,0 -0.43555,4.49023 h 12.94336 l 0.44922,-4.49023 z m 19.43554,0 -0.45703,4.49023 h 12.94336 l 0.47266,-4.49023 z m 19.4375,0 -0.47851,4.49023 h 12.9414 l 0.49414,-4.49023 z m -835.044919,6.73242 0.492187,4.47461 H 44.28125 l -0.476562,-4.47461 z m 19.402343,0 0.470704,4.47461 h 12.919921 l -0.455078,-4.47461 z m 19.404297,0 0.447266,4.47461 h 12.919922 l -0.433594,-4.47461 z m 19.402344,0 0.423828,4.47461 h 12.921877 l -0.41016,-4.47461 z m 19.402345,0 0.40234,4.47461 h 12.91992 l -0.38671,-4.47461 z m 19.40234,0 0.38086,4.47461 h 12.91992 l -0.36523,-4.47461 z m 19.4043,0 0.35742,4.47461 h 12.91992 l -0.34179,-4.47461 z m 19.40234,0 0.33399,4.47461 h 12.92187 L 179.625,269.7793 Z m 19.40235,0 0.3125,4.47461 h 12.91992 l -0.29688,-4.47461 z m 19.40429,0 0.28907,4.47461 h 12.91992 l -0.27344,-4.47461 z m 19.40235,0 0.26758,4.47461 h 12.91992 l -0.25196,-4.47461 z m 19.40234,0 0.24414,4.47461 h 12.92188 l -0.23047,-4.47461 z m 19.4043,0 0.2207,4.47461 h 12.91992 l -0.20703,-4.47461 z m 19.40234,0 0.19922,4.47461 h 12.91992 l -0.18359,-4.47461 z m 58.20899,0 0.13086,4.47461 h 12.91992 l -0.11524,-4.47461 z m 19.40234,0 0.10937,4.47461 h 12.91993 l -0.0937,-4.47461 H 360.7188 Z m 19.40234,0 0.0879,4.47461 h 12.91993 l -0.0723,-4.47461 h -12.93555 z m 19.4043,0 0.0625,4.47461 h 12.92188 l -0.0488,-4.47461 h -12.93555 z m 19.40234,0 0.041,4.47461 h 12.91992 l -0.0254,-4.47461 H 418.9277 Z m 19.40235,0 0.0195,4.47461 h 12.91992 l -0.004,-4.47461 h -12.93554 z m 19.4043,0 -0.004,4.47461 h 12.91992 l 0.0195,-4.47461 h -12.93554 z m 19.40234,0 -0.0273,4.47461 h 12.92187 l 0.041,-4.47461 h -12.93555 z m 19.40234,0 -0.0488,4.47461 h 12.91993 l 0.0644,-4.47461 h -12.93555 z m 19.4043,0 -0.0723,4.47461 h 12.91993 l 0.0859,-4.47461 H 515.9433 Z m 19.40234,0 -0.0937,4.47461 h 12.91993 l 0.10937,-4.47461 h -12.93555 z m 19.40235,0 -0.11719,4.47461 h 12.92187 l 0.13086,-4.47461 z m 19.40429,0 -0.14062,4.47461 h 12.91992 l 0.1543,-4.47461 z m 19.40235,0 -0.16211,4.47461 h 12.91992 l 0.17773,-4.47461 z m 19.40234,0 -0.18359,4.47461 h 12.91992 l 0.19922,-4.47461 z m 19.40235,0 -0.20508,4.47461 h 12.91992 l 0.2207,-4.47461 z m 38.80664,0 -0.25196,4.47461 h 12.91992 l 0.26758,-4.47461 z m 19.40234,0 -0.27344,4.47461 h 12.91992 l 0.28907,-4.47461 z m 19.4043,0 -0.29688,4.47461 h 12.91992 l 0.3125,-4.47461 z m 19.40234,0 -0.32031,4.47461 h 12.92187 l 0.33399,-4.47461 z m 19.40234,0 -0.34179,4.47461 h 12.91992 l 0.35742,-4.47461 z m 38.80664,0 -0.38671,4.47461 h 12.91992 l 0.40234,-4.47461 z m 19.40235,0 -0.41016,4.47461 h 12.92188 l 0.42383,-4.47461 z m 19.40429,0 -0.43359,4.47461 h 12.91992 l 0.44727,-4.47461 z m 19.40235,0 -0.45508,4.47461 h 12.91992 l 0.47071,-4.47461 z m 19.40234,0 -0.47656,4.47461 h 12.91992 l 0.49219,-4.47461 z m -833.587888,6.70703 0.490234,4.45898 h 12.898438 l -0.476563,-4.45898 z m 19.36914,0 0.46875,4.45898 h 12.896485 l -0.453125,-4.45898 z m 19.369141,0 0.445313,4.45898 h 12.898437 l -0.431641,-4.45898 z m 19.369141,0 0.423828,4.45898 h 12.896488 l -0.40821,-4.45898 z m 19.369136,0 0.4004,4.45898 h 12.89843 l -0.38672,-4.45898 z m 19.36914,0 0.37891,4.45898 h 12.89649 l -0.36329,-4.45898 z m 19.36915,0 0.35546,4.45898 h 12.89844 l -0.34179,-4.45898 z m 19.36914,0 0.33398,4.45898 h 12.89649 l -0.31836,-4.45898 z m 19.36914,0 0.31054,4.45898 h 12.89844 l -0.29687,-4.45898 z m 19.36914,0 0.28906,4.45898 h 12.89648 l -0.27343,-4.45898 z m 19.36914,0 0.26562,4.45898 h 12.89844 l -0.25195,-4.45898 z m 19.36914,0 0.24414,4.45898 h 12.89648 l -0.22851,-4.45898 z m 19.36914,0 0.2207,4.45898 h 12.89844 l -0.20703,-4.45898 z m 19.36914,0 0.19922,4.45898 h 12.89648 l -0.18359,-4.45898 z m 19.36914,0 0.17578,4.45898 h 12.89844 l -0.16211,-4.45898 z m 19.36914,0 0.15235,4.45898 h 12.89843 l -0.13867,-4.45898 z m 19.36914,0 0.13086,4.45898 h 12.89844 l -0.11719,-4.45898 z m 19.36914,0 0.10742,4.45898 h 12.89844 l -0.0937,-4.45898 h -12.91211 z m 19.36914,0 0.0859,4.45898 h 12.89844 l -0.0723,-4.45898 h -12.91211 z m 19.36914,0 0.0625,4.45898 h 12.89844 l -0.0488,-4.45898 h -12.91211 z m 19.36914,0 0.041,4.45898 h 12.89844 l -0.0274,-4.45898 h -12.91211 z m 19.36915,0 0.0176,4.45898 h 12.89844 l -0.004,-4.45898 h -12.9121 z m 19.36914,0 -0.004,4.45898 h 12.89844 l 0.0176,-4.45898 h -12.9121 z m 19.36914,0 -0.0274,4.45898 h 12.89844 l 0.041,-4.45898 h -12.91211 z m 19.36914,0 -0.0488,4.45898 h 12.89648 l 0.0645,-4.45898 h -12.91211 z m 19.36914,0 -0.0723,4.45898 h 12.89844 l 0.0859,-4.45898 h -12.91211 z m 19.36914,0 -0.0937,4.45898 h 12.89648 l 0.10938,-4.45898 h -12.91211 z m 19.36914,0 -0.11719,4.45898 h 12.89844 l 0.13086,-4.45898 z m 19.36914,0 -0.13867,4.45898 h 12.89648 l 0.1543,-4.45898 z m 19.36914,0 -0.16211,4.45898 h 12.89844 l 0.17578,-4.45898 z m 19.36914,0 -0.18359,4.45898 h 12.89648 l 0.19922,-4.45898 z m 19.36914,0 -0.20703,4.45898 h 12.89844 l 0.2207,-4.45898 z m 38.73828,0 -0.25195,4.45898 h 12.89844 l 0.26562,-4.45898 z m 19.36914,0 -0.27343,4.45898 h 12.89648 l 0.28906,-4.45898 z m 19.36914,0 -0.29687,4.45898 h 12.89844 l 0.31054,-4.45898 z m 19.36914,0 -0.31836,4.45898 h 12.89649 l 0.33398,-4.45898 z m 19.36914,0 -0.34179,4.45898 h 12.89844 l 0.35546,-4.45898 z m 38.73829,0 -0.38672,4.45898 h 12.89843 l 0.4004,-4.45898 z m 19.36914,0 -0.40821,4.45898 h 12.89649 l 0.42383,-4.45898 z m 19.36914,0 -0.43164,4.45898 h 12.89843 l 0.44532,-4.45898 z m 19.36914,0 -0.45313,4.45898 h 12.89649 l 0.46875,-4.45898 z m 19.36914,0 -0.47656,4.45898 h 12.89843 l 0.49024,-4.45898 z m -832.13672,6.68555 0.488281,4.44335 h 12.875 l -0.472656,-4.44335 z m 19.333984,0 0.466797,4.44335 h 12.876953 l -0.453125,-4.44335 z m 19.335938,0 0.445312,4.44335 h 12.875 l -0.429687,-4.44335 z m 19.335937,0 0.421875,4.44335 h 12.874996 l -0.40625,-4.44335 z m 19.335941,0 0.39843,4.44335 h 12.875 l -0.38476,-4.44335 z m 19.33398,0 0.37695,4.44335 h 12.87696 l -0.36328,-4.44335 z m 19.33594,0 0.35547,4.44335 h 12.875 l -0.33985,-4.44335 z m 19.33594,0 0.33203,4.44335 h 12.875 l -0.31641,-4.44335 z m 19.33593,0 0.3086,4.44335 h 12.875 l -0.29492,-4.44335 z m 19.33399,0 0.28906,4.44335 h 12.875 l -0.27344,-4.44335 z m 19.33594,0 0.26562,4.44335 h 12.875 l -0.25,-4.44335 z m 19.33593,0 0.24219,4.44335 h 12.875 l -0.22656,-4.44335 z m 19.33594,0 0.21875,4.44335 h 12.875 l -0.20508,-4.44335 z m 19.33398,0 0.19922,4.44335 h 12.875 l -0.18359,-4.44335 z m 19.33594,0 0.17578,4.44335 h 12.875 l -0.16015,-4.44335 z m 19.33594,0 0.15234,4.44335 h 12.875 l -0.13672,-4.44335 z m 19.33398,0 0.13086,4.44335 h 12.87696 l -0.11719,-4.44335 z m 19.33594,0 0.10938,4.44335 h 12.875 l -0.0937,-4.44335 h -12.89063 z m 19.33594,0 0.0859,4.44335 h 12.875 l -0.0703,-4.44335 h -12.89062 z m 19.33594,0 0.0625,4.44335 h 12.875 l -0.0488,-4.44335 h -12.88867 z m 19.33398,0 0.041,4.44335 h 12.87695 l -0.0273,-4.44335 H 419.0508 Z m 19.33594,0 0.0195,4.44335 h 12.875 l -0.004,-4.44335 H 438.3866 Z m 19.33594,0 -0.004,4.44335 h 12.875 l 0.0195,-4.44335 h -12.89062 z m 19.33593,0 -0.0273,4.44335 h 12.875 l 0.041,-4.44335 h -12.88868 z m 19.33399,0 -0.0469,4.44335 h 12.875 l 0.0625,-4.44335 h -12.89062 z m 19.33594,0 -0.0703,4.44335 h 12.875 l 0.0859,-4.44335 H 515.7285 Z m 19.33593,0 -0.0937,4.44335 h 12.875 l 0.10938,-4.44335 H 535.0645 Z m 19.33594,0 -0.11719,4.44335 h 12.87696 l 0.1289,-4.44335 z m 19.33399,0 -0.13672,4.44335 h 12.875 l 0.15234,-4.44335 z m 19.33593,0 -0.16015,4.44335 h 12.875 l 0.17578,-4.44335 z m 19.33594,0 -0.18359,4.44335 h 12.875 l 0.19922,-4.44335 z m 19.33594,0 -0.20703,4.44335 h 12.87695 l 0.21875,-4.44335 z m 19.33398,0 -0.22656,4.44335 h 12.875 l 0.24219,-4.44335 z m 19.33594,0 -0.25,4.44335 h 12.875 l 0.26562,-4.44335 z m 19.33594,0 -0.27344,4.44335 h 12.875 l 0.28906,-4.44335 z m 19.33398,0 -0.29492,4.44335 h 12.87695 l 0.3086,-4.44335 z m 19.33594,0 -0.31641,4.44335 h 12.875 l 0.33203,-4.44335 z m 19.33594,0 -0.33985,4.44335 h 12.875 l 0.35547,-4.44335 z m 19.33593,0 -0.36328,4.44335 h 12.875 l 0.37891,-4.44335 z m 19.33399,0 -0.38281,4.44335 h 12.875 l 0.39843,-4.44335 z m 19.33594,0 -0.40625,4.44335 h 12.875 l 0.42187,-4.44335 z m 19.33593,0 -0.42968,4.44335 h 12.875 l 0.44531,-4.44335 z m 19.33594,0 -0.45312,4.44335 h 12.87695 l 0.46484,-4.44335 z m 19.33398,0 -0.47265,4.44335 h 12.875 l 0.48828,-4.44335 z m -830.689448,6.6621 0.488281,4.42774 h 12.851563 l -0.472657,-4.42774 z m 19.302734,0 0.464844,4.42774 h 12.853516 l -0.451172,-4.42774 z m 19.300782,0 0.443359,4.42774 h 12.853515 l -0.427734,-4.42774 z m 19.302734,0 0.419922,4.42774 h 12.853516 l -0.40625,-4.42774 z m 19.300778,0 0.39844,4.42774 h 12.85352 l -0.38282,-4.42774 z m 19.30274,0 0.375,4.42774 h 12.85351 l -0.36133,-4.42774 z m 19.30078,0 0.35351,4.42774 h 12.85352 l -0.33789,-4.42774 z m 19.30273,0 0.33008,4.42774 h 12.85352 l -0.31641,-4.42774 z m 19.30078,0 0.31055,4.42774 h 12.85156 l -0.29296,-4.42774 z m 19.30274,0 0.28711,4.42774 h 12.85156 l -0.27148,-4.42774 z m 19.30273,0 0.26368,4.42774 h 12.85156 l -0.24805,-4.42774 z m 19.30078,0 0.24219,4.42774 h 12.85352 l -0.22852,-4.42774 z m 19.30274,0 0.21875,4.42774 h 12.85351 l -0.20507,-4.42774 z m 19.30078,0 0.19727,4.42774 h 12.85351 l -0.18359,-4.42774 z m 19.30273,0 0.17383,4.42774 h 12.85352 l -0.16016,-4.42774 z m 19.30079,0 0.15234,4.42774 h 12.85352 l -0.13672,-4.42774 z m 19.30273,0 0.12891,4.42774 h 12.85351 l -0.11523,-4.42774 z m 19.30078,0 0.10938,4.42774 h 12.85156 l -0.0918,-4.42774 z m 19.30274,0 0.0859,4.42774 h 12.85157 l -0.0703,-4.42774 h -12.86718 z m 19.30078,0 0.0645,4.42774 h 12.85352 l -0.0488,-4.42774 h -12.86914 z m 19.30273,0 0.041,4.42774 h 12.85351 l -0.0273,-4.42774 H 419.1133 Z m 19.30078,0 0.0195,4.42774 h 12.85352 l -0.004,-4.42774 h -12.86914 z m 19.30274,0 -0.004,4.42774 h 12.85352 l 0.0176,-4.42774 h -12.86718 z m 19.30273,0 -0.0273,4.42774 h 12.85351 l 0.041,-4.42774 h -12.86719 z m 19.30078,0 -0.0488,4.42774 h 12.85352 l 0.0625,-4.42774 h -12.86719 z m 19.30274,0 -0.0723,4.42774 h 12.85352 l 0.0859,-4.42774 h -12.86718 z m 19.30078,0 -0.0918,4.42774 h 12.85156 l 0.10938,-4.42774 z m 19.30273,0 -0.11523,4.42774 h 12.85156 l 0.13086,-4.42774 z m 19.30078,0 -0.13672,4.42774 h 12.85352 l 0.15234,-4.42774 z m 19.30274,0 -0.16016,4.42774 h 12.85352 l 0.17383,-4.42774 z m 19.30078,0 -0.18164,4.42774 h 12.85351 L 625,289.83398 Z m 19.30273,0 -0.20507,4.42774 h 12.85351 l 0.21875,-4.42774 z m 19.30079,0 -0.22657,4.42774 h 12.85352 l 0.24219,-4.42774 z m 19.30273,0 -0.25,4.42774 h 12.85351 l 0.26368,-4.42774 z m 19.30273,0 -0.27148,4.42774 h 12.85156 l 0.28711,-4.42774 z m 19.30078,0 -0.29296,4.42774 h 12.85156 l 0.30859,-4.42774 z m 19.30274,0 -0.31641,4.42774 h 12.85157 l 0.33203,-4.42774 z m 19.30078,0 -0.33789,4.42774 h 12.85352 l 0.35351,-4.42774 z m 19.30274,0 -0.36133,4.42774 h 12.85351 l 0.375,-4.42774 z m 19.30078,0 -0.38282,4.42774 h 12.85352 l 0.39844,-4.42774 z m 19.30273,0 -0.40625,4.42774 h 12.85352 l 0.41992,-4.42774 z m 19.30078,0 -0.42773,4.42774 h 12.85351 l 0.44336,-4.42774 z m 19.30274,0 -0.45118,4.42774 h 12.85352 l 0.46484,-4.42774 z m 19.30078,0 -0.47071,4.42774 h 12.85157 l 0.48828,-4.42774 z m -829.248049,6.63672 0.486328,4.41407 h 12.830078 l -0.470703,-4.41407 z m 19.269531,0 0.46289,4.41407 h 12.830079 l -0.447266,-4.41407 z m 19.267578,0 0.441406,4.41407 h 12.830078 l -0.425781,-4.41407 z m 19.267578,0 0.419922,4.41407 h 12.83008 l -0.4043,-4.41407 z m 19.269532,0 0.39648,4.41407 h 12.83008 l -0.38086,-4.41407 z m 19.26758,0 0.375,4.41407 h 12.83008 l -0.35938,-4.41407 z m 19.26953,0 0.35156,4.41407 h 12.83008 l -0.33594,-4.41407 z m 19.26758,0 0.33007,4.41407 h 12.83008 l -0.31445,-4.41407 z m 19.26757,0 0.3086,4.41407 h 12.83008 l -0.29297,-4.41407 z m 19.26954,0 0.28515,4.41407 h 12.83008 l -0.26953,-4.41407 z m 19.26757,0 0.26368,4.41407 h 12.83007 l -0.24804,-4.41407 z m 19.26954,0 0.24023,4.41407 h 12.83008 l -0.22461,-4.41407 z m 19.26757,0 0.21875,4.41407 h 12.83008 l -0.20312,-4.41407 z m 19.26954,0 0.19531,4.41407 h 12.83008 l -0.18165,-4.41407 z m 19.26757,0 0.17383,4.41407 h 12.83008 l -0.1582,-4.41407 z m 19.26758,0 0.15235,4.41407 h 12.83007 l -0.13672,-4.41407 z m 19.26953,0 0.12891,4.41407 h 12.83008 l -0.11328,-4.41407 z m 19.26758,0 0.10742,4.41407 h 12.83008 l -0.0918,-4.41407 z m 19.26953,0 0.084,4.41407 h 12.83203 l -0.0723,-4.41407 h -12.84375 z m 19.26758,0 0.0625,4.41407 h 12.83203 l -0.0488,-4.41407 h -12.8457 z m 19.26758,0 0.041,4.41407 h 12.83204 l -0.0274,-4.41407 h -12.8457 z m 19.26953,0 0.0176,4.41407 h 12.83203 l -0.004,-4.41407 h -12.8457 z m 19.26758,0 -0.004,4.41407 h 12.83203 l 0.0176,-4.41407 h -12.8457 z m 19.26953,0 -0.0274,4.41407 h 12.83204 l 0.041,-4.41407 h -12.8457 z m 19.26758,0 -0.0488,4.41407 h 12.83203 l 0.0625,-4.41407 h -12.8457 z m 19.26757,0 -0.0703,4.41407 h 12.83203 l 0.084,-4.41407 h -12.84571 z m 19.26954,0 -0.0937,4.41407 h 12.83203 l 0.10742,-4.41407 h -12.8457 z m 19.26757,0 -0.11523,4.41407 h 12.83203 l 0.12891,-4.41407 z m 19.26954,0 -0.13868,4.41407 h 12.83203 l 0.15235,-4.41407 z m 19.26757,0 -0.16015,4.41407 h 12.83203 l 0.17383,-4.41407 z m 19.26758,0 -0.18164,4.41407 h 12.83203 l 0.19531,-4.41407 z m 19.26953,0 -0.20507,4.41407 h 12.83203 l 0.21875,-4.41407 z m 19.26758,0 -0.22656,4.41407 H 663 l 0.24023,-4.41407 z m 19.26953,0 -0.25,4.41407 h 12.83203 l 0.26368,-4.41407 z m 19.26758,0 -0.27148,4.41407 h 12.83203 l 0.28515,-4.41407 z m 19.26758,0 -0.29297,4.41407 h 12.83203 l 0.30664,-4.41407 z m 19.26953,0 -0.31445,4.41407 h 12.83008 l 0.33007,-4.41407 z m 19.26758,0 -0.33594,4.41407 h 12.83008 l 0.35156,-4.41407 z m 19.26953,0 -0.35938,4.41407 h 12.83008 l 0.375,-4.41407 z m 19.26758,0 -0.38086,4.41407 h 12.83008 l 0.39648,-4.41407 z m 19.26953,0 -0.4043,4.41407 h 12.83008 l 0.41797,-4.41407 z m 19.26758,0 -0.42578,4.41407 h 12.83007 l 0.44141,-4.41407 z m 19.26757,0 -0.44726,4.41407 h 12.83008 l 0.46289,-4.41407 z m 19.26954,0 -0.47071,4.41407 h 12.83008 l 0.48633,-4.41407 z m -827.812504,6.61524 0.484375,4.39844 h 12.808594 l -0.46875,-4.39844 z m 19.234375,0 0.462891,4.39844 h 12.808594 l -0.447266,-4.39844 z m 19.236328,0 0.439453,4.39844 h 12.808594 l -0.425781,-4.39844 z m 19.234375,0 0.417969,4.39844 H 105.4668 l -0.40235,-4.39844 z m 19.234376,0 0.39648,4.39844 h 12.8086 l -0.38086,-4.39844 z m 19.23633,0 0.37304,4.39844 h 12.8086 l -0.35938,-4.39844 z m 19.23437,0 0.35157,4.39844 h 12.80859 l -0.33594,-4.39844 z m 19.23438,0 0.33008,4.39844 h 12.80859 l -0.31445,-4.39844 z m 19.23633,0 0.30664,4.39844 h 12.80859 l -0.29297,-4.39844 z m 19.23437,0 0.28516,4.39844 h 12.80859 l -0.26953,-4.39844 z m 19.23438,0 0.26367,4.39844 h 12.80859 l -0.24805,-4.39844 z m 19.23632,0 0.24024,4.39844 h 12.80859 l -0.22656,-4.39844 z m 19.23438,0 0.21875,4.39844 h 12.80859 l -0.20312,-4.39844 z m 19.23437,0 0.19727,4.39844 h 12.80859 l -0.18164,-4.39844 z m 19.23633,0 0.17383,4.39844 h 12.80859 l -0.16015,-4.39844 z m 19.23438,0 0.15234,4.39844 h 12.80859 l -0.13671,-4.39844 z m 19.23437,0 0.13086,4.39844 h 12.8086 l -0.11524,-4.39844 z m 19.23633,0 0.10742,4.39844 h 12.8086 l -0.0937,-4.39844 H 361.5313 Z m 19.23437,0 0.0859,4.39844 h 12.80664 l -0.0684,-4.39844 h -12.82422 z m 19.23438,0 0.0625,4.39844 h 12.80859 l -0.0469,-4.39844 h -12.82422 z m 19.23633,0 0.0391,4.39844 h 12.80859 l -0.0254,-4.39844 h -12.82226 z m 19.23437,0 0.0176,4.39844 h 12.8086 l -0.002,-4.39844 h -12.82422 z m 19.23438,0 -0.004,4.39844 h 12.8086 l 0.0195,-4.39844 h -12.82422 z m 19.23633,0 -0.0274,4.39844 h 12.8086 l 0.041,-4.39844 h -12.82226 z m 19.23437,0 -0.0488,4.39844 h 12.8086 l 0.0645,-4.39844 h -12.82422 z m 19.23438,0 -0.0703,4.39844 h 12.8086 l 0.0859,-4.39844 h -12.82422 z m 19.23632,0 -0.0937,4.39844 h 12.8086 l 0.10742,-4.39844 h -12.82227 z m 19.23438,0 -0.11524,4.39844 h 12.8086 l 0.13086,-4.39844 z m 19.23437,0 -0.13671,4.39844 h 12.80859 l 0.15234,-4.39844 z m 19.23633,0 -0.16015,4.39844 H 605 l 0.17383,-4.39844 z m 19.23438,0 -0.18164,4.39844 h 12.80859 l 0.19727,-4.39844 z m 19.23437,0 -0.20312,4.39844 h 12.80859 l 0.21875,-4.39844 z m 19.23633,0 -0.22656,4.39844 h 12.80859 l 0.24024,-4.39844 z m 19.23438,0 -0.24805,4.39844 h 12.80859 l 0.26367,-4.39844 z m 19.23437,0 -0.26953,4.39844 h 12.80859 l 0.28516,-4.39844 z m 19.23633,0 -0.29297,4.39844 h 12.80859 l 0.30664,-4.39844 z m 19.23437,0 -0.31445,4.39844 h 12.80859 l 0.33008,-4.39844 z m 19.23438,0 -0.33594,4.39844 h 12.80859 l 0.35157,-4.39844 z m 19.23633,0 -0.35938,4.39844 h 12.8086 l 0.37304,-4.39844 z m 19.23437,0 -0.38086,4.39844 h 12.8086 l 0.39648,-4.39844 z m 19.23438,0 -0.40235,4.39844 h 12.8086 l 0.41797,-4.39844 z m 19.23633,0 -0.42579,4.39844 h 12.8086 l 0.43945,-4.39844 z m 19.23437,0 -0.44727,4.39844 h 12.8086 l 0.46289,-4.39844 z m 19.23437,0 -0.46874,4.39844 h 12.80859 l 0.48437,-4.39844 z m -826.378901,6.59375 0.482422,4.38281 H 48.529297 L 48.0625,309.67969 Z m 19.201172,0 0.460937,4.38281 h 12.785156 l -0.445312,-4.38281 z m 19.201171,0 0.439454,4.38281 h 12.785156 l -0.423828,-4.38281 z m 19.203126,0 0.416015,4.38281 h 12.785157 l -0.40039,-4.38281 z m 19.201172,0 0.39453,4.38281 h 12.78516 l -0.37891,-4.38281 z m 19.20117,0 0.37305,4.38281 h 12.78515 l -0.35742,-4.38281 z m 19.20117,0 0.35157,4.38281 h 12.78515 l -0.33398,-4.38281 z m 19.20313,0 0.32812,4.38281 h 12.78516 l -0.3125,-4.38281 z m 19.20117,0 0.30664,4.38281 h 12.78516 l -0.29102,-4.38281 z m 19.20117,0 0.28516,4.38281 h 12.78515 l -0.26757,-4.38281 z m 19.20313,0 0.26172,4.38281 h 12.78515 l -0.24609,-4.38281 z m 19.20117,0 0.24023,4.38281 h 12.78516 l -0.22461,-4.38281 z m 19.20117,0 0.21875,4.38281 h 12.78516 l -0.20117,-4.38281 z m 19.20313,0 0.19531,4.38281 h 12.78515 l -0.17968,-4.38281 z m 19.20117,0 0.17383,4.38281 h 12.78515 l -0.1582,-4.38281 z m 19.20117,0 0.15234,4.38281 h 12.78516 l -0.13672,-4.38281 z m 19.20312,0 0.12891,4.38281 h 12.78516 l -0.11328,-4.38281 z m 19.20118,0 0.10742,4.38281 h 12.78515 l -0.0918,-4.38281 H 361.6914 Z m 19.20117,0 0.0859,4.38281 h 12.78515 l -0.0703,-4.38281 h -12.80078 z m 19.20312,0 0.0625,4.38281 h 12.78516 l -0.0469,-4.38281 h -12.80078 z m 19.20118,0 0.041,4.38281 h 12.78516 l -0.0254,-4.38281 h -12.80078 z m 19.20117,0 0.0195,4.38281 h 12.78515 l -0.004,-4.38281 h -12.80078 z m 19.20312,0 -0.004,4.38281 h 12.78515 l 0.0195,-4.38281 h -12.80078 z m 19.20117,0 -0.0254,4.38281 h 12.78516 l 0.041,-4.38281 h -12.80078 z m 19.20118,0 -0.0469,4.38281 h 12.78516 l 0.0625,-4.38281 H 496.1035 Z m 19.20117,0 -0.0684,4.38281 h 12.78515 l 0.0859,-4.38281 h -12.80273 z m 19.20312,0 -0.0918,4.38281 h 12.78515 l 0.10742,-4.38281 H 534.5078 Z m 19.20117,0 -0.11328,4.38281 h 12.78516 l 0.12891,-4.38281 z m 19.20118,0 -0.13477,4.38281 h 12.78516 l 0.15234,-4.38281 z m 19.20312,0 -0.1582,4.38281 h 12.78515 l 0.17383,-4.38281 z m 19.20117,0 -0.17968,4.38281 h 12.78515 l 0.19531,-4.38281 z m 19.20117,0 -0.20117,4.38281 h 12.78516 l 0.21875,-4.38281 z m 19.20313,0 -0.22461,4.38281 h 12.78516 l 0.24023,-4.38281 z m 19.20117,0 -0.24609,4.38281 h 12.78515 l 0.26172,-4.38281 z m 19.20117,0 -0.26757,4.38281 h 12.78515 l 0.28321,-4.38281 z m 19.20313,0 -0.29102,4.38281 h 12.78516 l 0.30664,-4.38281 z m 19.20117,0 -0.3125,4.38281 h 12.78516 l 0.32812,-4.38281 z m 19.20117,0 -0.33398,4.38281 h 12.78515 l 0.34961,-4.38281 z m 19.20313,0 -0.35742,4.38281 h 12.78515 l 0.37305,-4.38281 z m 19.20117,0 -0.37891,4.38281 h 12.78516 l 0.39453,-4.38281 z m 19.20117,0 -0.40039,4.38281 h 12.78516 l 0.41601,-4.38281 z m 19.20313,0 -0.42383,4.38281 h 12.78515 l 0.43946,-4.38281 z m 19.20117,0 -0.44531,4.38281 h 12.78515 l 0.46094,-4.38281 z m 19.20117,0 -0.4668,4.38281 h 12.78516 l 0.48242,-4.38281 z M 35.984375,316.25 l 0.480469,4.36719 H 49.228516 L 48.763672,316.25 Z m 19.167969,0 0.458984,4.36719 H 68.375 L 67.931641,316.25 Z m 19.169922,0 0.435546,4.36719 H 87.523438 L 87.101562,316.25 Z m 19.167968,0 0.414063,4.36719 H 106.66992 L 106.26953,316.25 Z m 19.167966,0 0.39258,4.36719 h 12.76563 L 125.4375,316.25 Z m 19.16992,0 0.36915,4.36719 h 12.76562 L 144.60742,316.25 Z m 19.16797,0 0.34766,4.36719 h 12.76563 L 163.77539,316.25 Z m 19.16797,0 0.32813,4.36719 h 12.76367 l -0.3125,-4.36719 z m 19.16992,0 0.30469,4.36719 h 12.76367 L 202.11328,316.25 Z m 19.16797,0 0.28321,4.36719 h 12.76367 L 221.28125,316.25 Z m 19.16797,0 0.26172,4.36719 h 12.76367 L 240.44922,316.25 Z m 19.16992,0 0.23828,4.36719 H 259.8418 L 259.61914,316.25 Z m 19.16797,0 0.2168,4.36719 h 12.76367 L 278.78711,316.25 Z m 19.16797,0 0.19531,4.36719 h 12.76368 L 297.95508,316.25 Z m 19.16992,0 0.17188,4.36719 h 12.76367 L 317.125,316.25 Z m 19.16797,0 0.15039,4.36719 h 12.76563 L 336.29297,316.25 Z m 19.16797,0 0.12891,4.36719 h 12.76562 L 355.46094,316.25 Z m 19.16992,0 0.10547,4.36719 h 12.76563 l -0.0918,-4.36719 z m 19.16797,0 0.084,4.36719 h 12.76562 l -0.0703,-4.36719 h -12.7793 z m 19.16992,0 0.0625,4.36719 h 12.76367 l -0.0488,-4.36719 h -12.77735 z m 19.16797,0 0.041,4.36719 h 12.76367 l -0.0254,-4.36719 h -12.7793 z m 19.16797,0 0.0195,4.36719 h 12.76367 l -0.004,-4.36719 h -12.7793 z m 19.16992,0 -0.004,4.36719 h 12.76367 l 0.0195,-4.36719 h -12.7793 z m 19.16797,0 -0.0254,4.36719 h 12.76367 l 0.041,-4.36719 h -12.7793 z m 19.16797,0 -0.0469,4.36719 h 12.76367 l 0.0625,-4.36719 h -12.7793 z m 19.16992,0 -0.0703,4.36719 h 12.76367 l 0.0859,-4.36719 h -12.7793 z m 19.16797,0 -0.0918,4.36719 h 12.76563 l 0.10547,-4.36719 z m 19.16797,0 -0.11328,4.36719 h 12.76562 l 0.12696,-4.36719 z m 19.16992,0 -0.13672,4.36719 h 12.76563 l 0.15039,-4.36719 z m 19.16797,0 -0.1582,4.36719 h 12.76562 L 604.6543,316.25 Z m 19.16797,0 -0.17969,4.36719 h 12.76563 l 0.19336,-4.36719 z m 19.16992,0 -0.20117,4.36719 h 12.76367 l 0.2168,-4.36719 z m 19.16797,0 -0.22266,4.36719 h 12.76368 l 0.23828,-4.36719 z m 19.16992,0 -0.24609,4.36719 h 12.76367 l 0.25976,-4.36719 z m 19.16797,0 -0.26758,4.36719 h 12.76367 l 0.28321,-4.36719 z m 19.16797,0 -0.28906,4.36719 h 12.76367 l 0.30469,-4.36719 z m 19.16992,0 -0.3125,4.36719 h 12.76367 l 0.32813,-4.36719 z m 19.16797,0 -0.33399,4.36719 h 12.76368 l 0.34961,-4.36719 z m 19.16797,0 -0.35547,4.36719 h 12.76562 l 0.36915,-4.36719 z m 19.16992,0 -0.37891,4.36719 h 12.76563 L 796.3418,316.25 Z m 19.16797,0 -0.40039,4.36719 h 12.76562 l 0.41407,-4.36719 z m 19.16797,0 -0.42188,4.36719 h 12.76563 l 0.43554,-4.36719 z m 19.16992,0 -0.44531,4.36719 h 12.76562 l 0.45899,-4.36719 z m 19.16797,0 -0.46485,4.36719 h 12.76368 l 0.48046,-4.36719 z m -823.531252,6.54688 0.478516,4.35156 h 12.742187 l -0.464843,-4.35156 z m 19.134766,0 0.457031,4.35156 h 12.744141 l -0.44336,-4.35156 z m 19.136718,0 0.435547,4.35156 h 12.742188 l -0.421875,-4.35156 z m 19.134766,0 0.414063,4.35156 h 12.742189 l -0.39844,-4.35156 z m 19.136722,0 0.39062,4.35156 h 12.74219 l -0.37695,-4.35156 z m 19.13476,0 0.36914,4.35156 h 12.74219 l -0.35352,-4.35156 z m 19.13672,0 0.3457,4.35156 h 12.74415 l -0.33399,-4.35156 z m 19.13477,0 0.32617,4.35156 h 12.74219 l -0.31055,-4.35156 z m 19.13476,0 0.30469,4.35156 h 12.74219 l -0.28906,-4.35156 z m 19.13672,0 0.28125,4.35156 h 12.74219 l -0.26563,-4.35156 z m 19.13477,0 0.25976,4.35156 h 12.74219 l -0.24414,-4.35156 z m 19.13672,0 0.23828,4.35156 h 12.74218 l -0.22461,-4.35156 z m 19.13476,0 0.2168,4.35156 h 12.74219 l -0.20118,-4.35156 z m 19.13672,0 0.19336,4.35156 h 12.74219 l -0.17969,-4.35156 z m 19.13477,0 0.17187,4.35156 h 12.74219 l -0.15625,-4.35156 z m 19.13671,0 0.14844,4.35156 h 12.74414 l -0.13672,-4.35156 z m 19.13477,0 0.12891,4.35156 h 12.74218 l -0.11328,-4.35156 z m 19.13672,0 0.10547,4.35156 h 12.74219 l -0.0918,-4.35156 z m 19.13476,0 0.084,4.35156 h 12.74219 l -0.0684,-4.35156 h -12.75782 z m 19.13477,0 0.0625,4.35156 h 12.74219 l -0.0469,-4.35156 h -12.75781 z m 19.13672,0 0.041,4.35156 h 12.74219 l -0.0254,-4.35156 h -12.75781 z m 19.13476,0 0.0195,4.35156 h 12.74218 l -0.004,-4.35156 h -12.75782 z m 19.13672,0 -0.004,4.35156 h 12.74218 l 0.0195,-4.35156 h -12.75782 z m 19.13477,0 -0.0254,4.35156 h 12.74219 l 0.041,-4.35156 H 476.8242 Z m 19.13672,0 -0.0488,4.35156 h 12.74414 l 0.0605,-4.35156 h -12.75586 z m 19.13476,0 -0.0684,4.35156 h 12.74219 l 0.084,-4.35156 h -12.75782 z m 19.13672,0 -0.0918,4.35156 h 12.74219 l 0.10547,-4.35156 z m 19.13477,0 -0.11328,4.35156 h 12.74218 l 0.12891,-4.35156 z m 19.13672,0 -0.13672,4.35156 h 12.74219 l 0.15039,-4.35156 z m 19.13476,0 -0.15625,4.35156 h 12.74219 l 0.17187,-4.35156 z m 19.13477,0 -0.17774,4.35156 h 12.74219 l 0.19336,-4.35156 z m 19.13672,0 -0.20118,4.35156 h 12.74219 l 0.2168,-4.35156 z m 19.13476,0 -0.22265,4.35156 h 12.74218 l 0.23828,-4.35156 z m 19.13672,0 -0.24609,4.35156 h 12.74414 l 0.25976,-4.35156 z m 19.13477,0 -0.26563,4.35156 h 12.74219 l 0.28125,-4.35156 z m 19.13671,0 -0.28906,4.35156 h 12.74219 l 0.30273,-4.35156 z m 19.13477,0 -0.31055,4.35156 h 12.74219 l 0.32617,-4.35156 z m 19.13672,0 -0.33399,4.35156 h 12.74219 l 0.34766,-4.35156 z m 19.13477,0 -0.35352,4.35156 h 12.74219 l 0.36914,-4.35156 z m 19.13671,0 -0.37695,4.35156 h 12.74219 l 0.39062,-4.35156 z m 19.13477,0 -0.39844,4.35156 h 12.74219 l 0.41406,-4.35156 z m 19.13672,0 -0.42188,4.35156 h 12.74219 l 0.43555,-4.35156 z m 19.13476,0 -0.44336,4.35156 h 12.74414 l 0.45704,-4.35156 z m 19.13477,0 -0.46289,4.35156 h 12.74219 l 0.47851,-4.35156 z m -822.113282,6.52343 0.476563,4.33789 h 12.720703 l -0.462891,-4.33789 z m 19.101563,0 0.455078,4.33789 h 12.720703 l -0.439453,-4.33789 z m 19.103515,0 0.433594,4.33789 h 12.720703 l -0.419922,-4.33789 z m 19.101563,0 0.412109,4.33789 h 12.720702 l -0.39648,-4.33789 z m 19.103511,0 0.39063,4.33789 h 12.7207 l -0.37695,-4.33789 z m 19.10352,0 0.36719,4.33789 h 12.7207 l -0.35351,-4.33789 z m 19.10156,0 0.34571,4.33789 h 12.7207 l -0.33008,-4.33789 z m 19.10352,0 0.32422,4.33789 h 12.7207 l -0.31055,-4.33789 z m 19.10156,0 0.30274,4.33789 h 12.7207 l -0.28711,-4.33789 z m 19.10352,0 0.28125,4.33789 h 12.7207 l -0.26758,-4.33789 z m 19.10351,0 0.25781,4.33789 h 12.72071 l -0.24414,-4.33789 z m 19.10156,0 0.23829,4.33789 h 12.71875 l -0.22071,-4.33789 z m 19.10352,0 0.21484,4.33789 h 12.72071 l -0.20118,-4.33789 z m 19.10352,0 0.1914,4.33789 h 12.72071 l -0.17774,-4.33789 z m 19.10156,0 0.17187,4.33789 h 12.72071 l -0.15625,-4.33789 z m 19.10351,0 0.14844,4.33789 h 12.7207 l -0.13476,-4.33789 z m 19.10157,0 0.1289,4.33789 h 12.72071 l -0.11329,-4.33789 z m 19.10351,0 0.10547,4.33789 h 12.7207 l -0.0918,-4.33789 h -12.73438 z m 19.10352,0 0.082,4.33789 h 12.7207 l -0.0684,-4.33789 h -12.73437 z m 19.10156,0 0.0625,4.33789 h 12.7207 l -0.0469,-4.33789 h -12.73633 z m 19.10352,0 0.0391,4.33789 h 12.7207 l -0.0254,-4.33789 h -12.73437 z m 19.10156,0 0.0195,4.33789 h 12.7207 l -0.004,-4.33789 h -12.73633 z m 19.10351,0 -0.004,4.33789 h 12.7207 l 0.0176,-4.33789 h -12.73438 z m 19.10352,0 -0.0254,4.33789 h 12.7207 l 0.0391,-4.33789 h -12.73437 z m 19.10156,0 -0.0469,4.33789 h 12.7207 l 0.0625,-4.33789 h -12.73633 z m 19.10352,0 -0.0703,4.33789 h 12.7207 l 0.084,-4.33789 h -12.73437 z m 19.10156,0 -0.0898,4.33789 h 12.7207 l 0.10547,-4.33789 h -12.73633 z m 19.10352,0 -0.11329,4.33789 h 12.72071 l 0.12695,-4.33789 z m 19.10351,0 -0.13476,4.33789 h 12.7207 l 0.14844,-4.33789 z m 19.10156,0 -0.15625,4.33789 h 12.72071 l 0.17187,-4.33789 z m 19.10352,0 -0.17774,4.33789 h 12.71876 l 0.19335,-4.33789 z m 19.10352,0 -0.20118,4.33789 h 12.72071 l 0.21484,-4.33789 z m 19.10156,0 -0.22266,4.33789 h 12.7207 l 0.23829,-4.33789 z m 19.10351,0 -0.24414,4.33789 h 12.72071 l 0.25781,-4.33789 z m 19.10157,0 -0.26563,4.33789 h 12.7207 l 0.28125,-4.33789 z m 19.10351,0 -0.28711,4.33789 h 12.7207 l 0.30079,-4.33789 z m 19.10352,0 -0.31055,4.33789 h 12.7207 l 0.32422,-4.33789 z m 19.10156,0 -0.33203,4.33789 h 12.7207 l 0.34766,-4.33789 z m 19.10351,0 -0.35351,4.33789 h 12.7207 l 0.36719,-4.33789 z m 19.10352,0 -0.37695,4.33789 h 12.7207 l 0.39063,-4.33789 z m 19.10156,0 -0.39648,4.33789 h 12.7207 l 0.41211,-4.33789 z m 19.10352,0 -0.41992,4.33789 h 12.7207 l 0.43359,-4.33789 z m 19.10156,0 -0.43945,4.33789 h 12.7207 l 0.45508,-4.33789 z m 19.10352,0 -0.46289,4.33789 h 12.7207 l 0.47656,-4.33789 z m -820.703128,6.50196 0.476562,4.32226 H 51.3125 l -0.460938,-4.32226 z m 19.070312,0 0.453125,4.32226 h 12.699219 l -0.439453,-4.32226 z m 19.070313,0 0.431641,4.32226 h 12.699218 l -0.417968,-4.32226 z m 19.068359,0 0.41211,4.32226 h 12.697264 l -0.39453,-4.32226 z m 19.070314,0 0.38867,4.32226 h 12.69922 l -0.37305,-4.32226 z m 19.07031,0 0.36719,4.32226 h 12.69922 l -0.35352,-4.32226 z m 19.07031,0 0.34571,4.32226 h 12.69726 l -0.33008,-4.32226 z m 19.07032,0 0.32226,4.32226 h 12.69922 l -0.30859,-4.32226 z m 19.07031,0 0.30078,4.32226 h 12.69922 l -0.28711,-4.32226 z m 19.06836,0 0.28125,4.32226 h 12.69726 l -0.26367,-4.32226 z m 19.07031,0 0.25781,4.32226 h 12.69922 l -0.24414,-4.32226 z m 19.07031,0 0.23633,4.32226 h 12.69922 l -0.22266,-4.32226 z m 19.07032,0 0.21484,4.32226 h 12.69726 l -0.19921,-4.32226 z m 19.07031,0 0.1914,4.32226 h 12.69922 l -0.17773,-4.32226 z m 19.07031,0 0.16992,4.32226 h 12.69922 l -0.15625,-4.32226 z m 19.06836,0 0.15039,4.32226 h 12.69727 l -0.13282,-4.32226 z m 19.07031,0 0.12696,4.32226 h 12.69921 l -0.11328,-4.32226 z m 19.07031,0 0.10547,4.32226 h 12.69922 l -0.0918,-4.32226 h -12.7129 z m 19.07032,0 0.084,4.32226 h 12.69727 l -0.0684,-4.32226 h -12.71289 z m 19.07031,0 0.0605,4.32226 h 12.69922 l -0.0469,-4.32226 h -12.71289 z m 19.07031,0 0.0391,4.32226 h 12.69922 l -0.0254,-4.32226 h -12.71289 z m 19.06836,0 0.0195,4.32226 h 12.69922 l -0.004,-4.32226 h -12.71485 z m 19.07031,0 -0.004,4.32226 h 12.69922 l 0.0176,-4.32226 h -12.71289 z m 19.07032,0 -0.0254,4.32226 h 12.69922 l 0.0391,-4.32226 h -12.71289 z m 19.07031,0 -0.0469,4.32226 h 12.69727 l 0.0625,-4.32226 h -12.71289 z m 19.07031,0 -0.0703,4.32226 h 12.69922 l 0.084,-4.32226 H 514.8887 Z m 19.07031,0 -0.0918,4.32226 h 12.69922 l 0.10547,-4.32226 h -12.7129 z m 19.06836,0 -0.11132,4.32226 h 12.69921 l 0.12696,-4.32226 z m 19.07032,0 -0.13477,4.32226 h 12.69922 l 0.14844,-4.32226 z m 19.07031,0 -0.15625,4.32226 h 12.69922 l 0.16992,-4.32226 z m 19.07031,0 -0.17773,4.32226 h 12.69922 l 0.1914,-4.32226 z m 19.07031,0 -0.20117,4.32226 h 12.69922 l 0.21484,-4.32226 z m 19.07032,0 -0.22266,4.32226 h 12.69922 l 0.23633,-4.32226 z m 19.06836,0 -0.24219,4.32226 h 12.69922 l 0.25781,-4.32226 z m 19.07031,0 -0.26563,4.32226 h 12.69922 l 0.2793,-4.32226 z m 19.07031,0 -0.28711,4.32226 H 718 l 0.30078,-4.32226 z m 19.07031,0 -0.30859,4.32226 h 12.69922 l 0.32226,-4.32226 z m 19.07032,0 -0.33008,4.32226 h 12.69726 l 0.34571,-4.32226 z m 19.07031,0 -0.35352,4.32226 h 12.69922 l 0.36719,-4.32226 z m 19.06836,0 -0.37305,4.32226 h 12.69922 l 0.38867,-4.32226 z m 19.07031,0 -0.39453,4.32226 h 12.69726 l 0.41016,-4.32226 z m 19.07031,0 -0.41797,4.32226 h 12.69922 l 0.43164,-4.32226 z m 19.07031,0 -0.43945,4.32226 h 12.69922 l 0.45313,-4.32226 z m 19.07032,0 -0.46094,4.32226 h 12.69727 l 0.47656,-4.32226 z m -819.296878,6.48046 0.47461,4.3086 h 12.677734 l -0.460937,-4.3086 z m 19.03711,0 0.453125,4.3086 h 12.677734 l -0.439453,-4.3086 z m 19.037109,0 0.431641,4.3086 h 12.677734 l -0.417968,-4.3086 z m 19.039063,0 0.408203,4.3086 h 12.677733 l -0.39453,-4.3086 z m 19.037106,0 0.38672,4.3086 h 12.67774 l -0.37305,-4.3086 z m 19.03711,0 0.36524,4.3086 h 12.67773 l -0.35156,-4.3086 z m 19.03711,0 0.34375,4.3086 h 12.67774 l -0.33008,-4.3086 z m 19.03711,0 0.32227,4.3086 h 12.67578 l -0.30664,-4.3086 z m 19.03711,0 0.30078,4.3086 h 12.67578 l -0.28515,-4.3086 z m 19.03711,0 0.2793,4.3086 h 12.67578 l -0.26367,-4.3086 z m 19.03711,0 0.25781,4.3086 h 12.67578 l -0.24218,-4.3086 z m 19.03711,0 0.23633,4.3086 h 12.67578 l -0.22071,-4.3086 z m 19.03711,0 0.21484,4.3086 h 12.67578 l -0.19922,-4.3086 z m 19.03711,0 0.19336,4.3086 h 12.67578 l -0.17578,-4.3086 z m 19.03906,0 0.16992,4.3086 h 12.67578 l -0.15429,-4.3086 z m 19.03711,0 0.14844,4.3086 h 12.67578 l -0.13281,-4.3086 z m 19.03711,0 0.12695,4.3086 h 12.67578 l -0.11133,-4.3086 z m 19.03711,0 0.10547,4.3086 h 12.67578 l -0.0899,-4.3086 h -12.6914 z m 19.03711,0 0.084,4.3086 h 12.67578 l -0.0684,-4.3086 h -12.6914 z m 19.03711,0 0.0625,4.3086 h 12.67578 l -0.0469,-4.3086 h -12.6914 z m 19.03711,0 0.041,4.3086 h 12.67578 l -0.0254,-4.3086 h -12.6914 z m 19.03711,0 0.0195,4.3086 h 12.67578 l -0.004,-4.3086 h -12.6914 z m 19.03711,0 -0.002,4.3086 h 12.67578 l 0.0195,-4.3086 h -12.69335 z m 19.03906,0 -0.0254,4.3086 h 12.67578 l 0.041,-4.3086 h -12.6914 z m 19.03711,0 -0.0469,4.3086 h 12.67578 l 0.0625,-4.3086 h -12.6914 z m 19.03711,0 -0.0684,4.3086 h 12.67578 l 0.084,-4.3086 h -12.6914 z m 19.03711,0 -0.0898,4.3086 h 12.67578 l 0.10547,-4.3086 h -12.6914 z m 19.03711,0 -0.11133,4.3086 h 12.67578 l 0.12695,-4.3086 z m 19.0371,0 -0.13281,4.3086 h 12.67578 l 0.14844,-4.3086 z m 19.03711,0 -0.15625,4.3086 h 12.67774 l 0.16992,-4.3086 z m 19.03711,0 -0.17773,4.3086 h 12.67773 l 0.19141,-4.3086 z m 19.03711,0 -0.19922,4.3086 h 12.67774 l 0.21289,-4.3086 z m 19.03907,0 -0.22266,4.3086 h 12.67773 l 0.23633,-4.3086 z m 19.0371,0 -0.24414,4.3086 h 12.67774 l 0.25781,-4.3086 z m 19.03711,0 -0.26562,4.3086 h 12.67773 l 0.2793,-4.3086 z m 19.03711,0 -0.28711,4.3086 h 12.67774 l 0.30078,-4.3086 z m 19.03711,0 -0.30859,4.3086 h 12.67773 l 0.32227,-4.3086 z m 19.03711,0 -0.33008,4.3086 h 12.67774 l 0.34375,-4.3086 z m 19.03711,0 -0.35156,4.3086 h 12.67773 l 0.36524,-4.3086 z m 19.03711,0 -0.37305,4.3086 h 12.67774 l 0.38672,-4.3086 z m 19.03711,0 -0.39453,4.3086 h 12.67773 l 0.40821,-4.3086 z m 19.03711,0 -0.41602,4.3086 h 12.67774 l 0.43164,-4.3086 z m 19.03906,0 -0.43945,4.3086 h 12.67773 l 0.45313,-4.3086 z m 19.03711,0 -0.46094,4.3086 h 12.67774 l 0.47461,-4.3086 z m -817.89453,6.45899 0.472656,4.29101 h 12.65625 l -0.458984,-4.29101 z m 19.005859,0 0.449219,4.29101 h 12.65625 l -0.435547,-4.29101 z m 19.003907,0 0.429687,4.29101 H 90.65625 l -0.414062,-4.29101 z m 19.003906,0 0.408203,4.29101 h 12.656245 l -0.39453,-4.29101 z m 19.005858,0 0.38672,4.29101 h 12.6543 l -0.3711,-4.29101 z m 19.00391,0 0.36523,4.29101 h 12.6543 l -0.34961,-4.29101 z m 19.00586,0 0.34179,4.29101 h 12.65625 l -0.32812,-4.29101 z m 19.0039,0 0.32227,4.29101 h 12.6543 l -0.30665,-4.29101 z m 19.00586,0 0.29883,4.29101 h 12.6543 l -0.28321,-4.29101 z m 19.00391,0 0.27734,4.29101 h 12.65625 l -0.26367,-4.29101 z m 19.00391,0 0.25781,4.29101 h 12.65429 l -0.24218,-4.29101 z m 19.00585,0 0.23438,4.29101 h 12.65625 l -0.2207,-4.29101 z m 19.00391,0 0.21289,4.29101 h 12.65625 l -0.19922,-4.29101 z m 19.00586,0 0.19141,4.29101 h 12.65429 l -0.17578,-4.29101 z m 19.00391,0 0.16992,4.29101 h 12.65625 l -0.15625,-4.29101 z m 19.00586,0 0.14648,4.29101 h 12.65625 l -0.13281,-4.29101 z m 19.0039,0 0.12695,4.29101 h 12.6543 l -0.11133,-4.29101 z m 19.00391,0 0.10547,4.29101 h 12.65625 l -0.0918,-4.29101 z m 19.00586,0 0.082,4.29101 h 12.65625 l -0.0684,-4.29101 h -12.66992 z m 19.0039,0 0.0625,4.29101 h 12.6543 l -0.0469,-4.29101 h -12.66993 z m 19.00586,0 0.0391,4.29101 h 12.65625 l -0.0254,-4.29101 h -12.66992 z m 19.00391,0 0.0176,4.29101 h 12.65625 l -0.004,-4.29101 h -12.66992 z m 19.00586,0 -0.004,4.29101 h 12.6543 l 0.0195,-4.29101 h -12.66992 z m 19.00391,0 -0.0254,4.29101 h 12.65625 l 0.0391,-4.29101 h -12.66992 z m 19.00585,0 -0.0469,4.29101 h 12.6543 l 0.0605,-4.29101 h -12.66797 z m 19.00391,0 -0.0684,4.29101 h 12.6543 l 0.084,-4.29101 h -12.66992 z m 19.00391,0 -0.0899,4.29101 h 12.65625 l 0.10352,-4.29101 H 533.6855 Z m 19.00586,0 -0.11133,4.29101 h 12.6543 l 0.12695,-4.29101 z m 19.0039,0 -0.13281,4.29101 h 12.65625 l 0.14648,-4.29101 z m 19.00586,0 -0.15625,4.29101 h 12.65625 l 0.16992,-4.29101 z m 19.00391,0 -0.17578,4.29101 h 12.65429 l 0.19141,-4.29101 z m 19.00586,0 -0.19922,4.29101 h 12.65625 l 0.21289,-4.29101 z m 19.0039,0 -0.2207,4.29101 h 12.65625 l 0.23438,-4.29101 z m 19.00391,0 -0.24023,4.29101 h 12.65429 l 0.25586,-4.29101 z m 19.00586,0 -0.26367,4.29101 h 12.65625 l 0.27734,-4.29101 z m 19.00391,0 -0.28516,4.29101 h 12.65625 l 0.29883,-4.29101 z m 19.00586,0 -0.30665,4.29101 h 12.6543 l 0.32227,-4.29101 z m 19.0039,0 -0.32812,4.29101 h 12.65625 l 0.34179,-4.29101 z m 19.00586,0 -0.34961,4.29101 h 12.6543 l 0.36523,-4.29101 z m 19.00391,0 -0.3711,4.29101 h 12.6543 l 0.38672,-4.29101 z m 19.00586,0 -0.39453,4.29101 h 12.65624 l 0.40626,-4.29101 z m 19.0039,0 -0.41406,4.29101 h 12.6543 l 0.42968,-4.29101 z m 19.00391,0 -0.43555,4.29101 h 12.6543 l 0.45117,-4.29101 z m 19.00586,0 -0.45899,4.29101 h 12.65625 l 0.47266,-4.29101 z m -816.496096,6.43555 0.470704,4.27734 h 12.634765 l -0.457031,-4.27734 z m 18.972657,0 0.449218,4.27734 h 12.632813 l -0.433594,-4.27734 z m 18.970703,0 0.429687,4.27734 h 12.632813 l -0.414063,-4.27734 z m 18.972656,0 0.40625,4.27734 h 12.63477 l -0.39258,-4.27734 z m 18.97266,0 0.38476,4.27734 h 12.63477 l -0.3711,-4.27734 z m 18.97265,0 0.36328,4.27734 h 12.63282 l -0.34766,-4.27734 z m 18.97266,0 0.3418,4.27734 h 12.63281 l -0.32617,-4.27734 z m 18.97265,0 0.31836,4.27734 h 12.63477 l -0.30664,-4.27734 z m 18.97071,0 0.29883,4.27734 h 12.63476 l -0.28515,-4.27734 z m 18.97265,0 0.27735,4.27734 h 12.63281 l -0.26172,-4.27734 z m 18.97266,0 0.25586,4.27734 h 12.63281 l -0.24023,-4.27734 z m 18.97266,0 0.23437,4.27734 h 12.63281 l -0.21875,-4.27734 z m 18.97265,0 0.21094,4.27734 h 12.63477 l -0.19727,-4.27734 z m 18.97071,0 0.1914,4.27734 h 12.63477 l -0.17774,-4.27734 z m 18.97265,0 0.16992,4.27734 h 12.63282 l -0.1543,-4.27734 z m 18.97266,0 0.14844,4.27734 h 12.63281 l -0.13281,-4.27734 z m 18.97265,0 0.125,4.27734 h 12.63477 l -0.11133,-4.27734 z m 18.97266,0 0.10352,4.27734 h 12.63476 l -0.0898,-4.27734 h -12.64844 z m 18.97266,0 0.082,4.27734 h 12.63281 l -0.0664,-4.27734 h -12.64844 z m 18.9707,0 0.0625,4.27734 h 12.63281 l -0.0469,-4.27734 h -12.64844 z m 18.97266,0 0.041,4.27734 h 12.63281 l -0.0254,-4.27734 h -12.64843 z m 18.97265,0 0.0176,4.27734 h 12.63477 l -0.004,-4.27734 h -12.64844 z m 18.97266,0 -0.004,4.27734 h 12.63477 l 0.0176,-4.27734 h -12.64844 z m 18.97266,0 -0.0254,4.27734 h 12.63281 l 0.041,-4.27734 h -12.64843 z m 18.97265,0 -0.0469,4.27734 h 12.63281 l 0.0606,-4.27734 h -12.64649 z m 18.9707,0 -0.0684,4.27734 h 12.63476 l 0.082,-4.27734 h -12.64844 z m 18.97266,0 -0.0898,4.27734 h 12.63476 l 0.10352,-4.27734 h -12.64844 z m 18.97266,0 -0.11133,4.27734 h 12.63281 l 0.12696,-4.27734 z m 18.97265,0 -0.13281,4.27734 h 12.63281 l 0.14844,-4.27734 z m 18.97266,0 -0.1543,4.27734 h 12.63282 l 0.16992,-4.27734 z m 18.9707,0 -0.17578,4.27734 h 12.63477 l 0.18945,-4.27734 z m 18.97266,0 -0.19727,4.27734 h 12.63477 l 0.21094,-4.27734 z m 18.97266,0 -0.21875,4.27734 h 12.63281 l 0.23437,-4.27734 z m 18.97265,0 -0.24023,4.27734 H 678.75 l 0.25586,-4.27734 z m 18.97266,0 -0.26367,4.27734 h 12.63476 l 0.27735,-4.27734 z m 18.97265,0 -0.28515,4.27734 h 12.63476 l 0.29883,-4.27734 z m 18.97071,0 -0.30469,4.27734 h 12.63477 l 0.31836,-4.27734 z m 18.97265,0 -0.32617,4.27734 h 12.63281 l 0.3418,-4.27734 z m 18.97266,0 -0.34766,4.27734 h 12.63282 l 0.36328,-4.27734 z m 18.97266,0 -0.3711,4.27734 h 12.63477 l 0.38476,-4.27734 z m 18.97265,0 -0.39258,4.27734 h 12.63477 l 0.40625,-4.27734 z m 18.97266,0 -0.41406,4.27734 h 12.63281 l 0.42773,-4.27734 z m 18.9707,0 -0.43359,4.27734 h 12.63281 l 0.44922,-4.27734 z m 18.97266,0 -0.45703,4.27734 h 12.63476 l 0.47071,-4.27734 z m -815.103518,6.41211 0.470704,4.26367 12.611328,0.002 -0.455078,-4.26562 H 40.976562 Z m 18.941407,0 0.447265,4.26367 12.611328,0.002 -0.433593,-4.26562 h -12.625 z m 18.939453,0 0.425781,4.26367 12.613281,0.002 -0.412109,-4.26562 H 78.857422 Z m 18.939453,0 0.404297,4.26367 12.613278,0.002 -0.39062,-4.26562 H 97.796875 Z m 18.939455,0 0.38476,4.26367 12.61133,0.002 -0.36914,-4.26562 h -12.62695 z m 18.9414,0 0.36133,4.26367 12.61133,0.002 -0.34766,-4.26562 h -12.625 z m 18.93946,0 0.33984,4.26367 12.61328,0.002 -0.32617,-4.26562 h -12.62695 z m 18.93945,0 0.31836,4.26367 12.61328,0.002 -0.30469,-4.26562 h -12.62695 z m 18.93945,0 0.29883,4.26367 12.61133,0.002 -0.2832,-4.26562 h -12.62696 z m 18.94141,0 0.27539,4.26367 12.61133,0.002 -0.25977,-4.26562 H 211.4375 Z m 18.93945,0 0.25391,4.26367 12.61328,0.002 -0.24023,-4.26562 h -12.62696 z m 18.93946,0 0.23242,4.26367 12.61328,0.002 -0.21875,-4.26562 h -12.62695 z m 18.93945,0 0.21289,4.26367 12.61133,0.002 -0.19727,-4.26562 h -12.62695 z m 18.94141,0 0.18945,4.26367 12.61133,0.002 -0.17383,-4.26562 h -12.62695 z m 18.93945,0 0.16797,4.26367 12.61328,0.002 -0.1543,-4.26562 h -12.62695 z m 18.93945,0 0.14649,4.26367 12.61328,0.002 -0.13282,-4.26562 h -12.62695 z m 18.94141,0 0.125,4.26367 12.61133,0.002 -0.11133,-4.26562 h -12.625 z m 18.93945,0 0.10352,4.26367 12.61328,0.002 -0.0899,-4.26562 h -12.62695 z m 18.93945,0 0.082,4.26367 12.61328,0.002 -0.0684,-4.26562 H 381.8964 Z m 18.93946,0 0.0625,4.26367 12.61133,0.002 -0.0469,-4.26562 h -12.62695 z m 18.9414,0 0.0391,4.26367 12.61132,0.002 -0.0254,-4.26562 h -12.625 z m 18.93946,0 0.0176,4.26367 12.61328,0.002 -0.004,-4.26562 h -12.62695 z m 18.93945,0 -0.004,4.26367 12.61328,0.002 0.0176,-4.26562 h -12.62695 z m 18.93945,0 -0.0234,4.26367 12.61132,0.002 0.0391,-4.26562 h -12.62696 z m 18.94141,0 -0.0469,4.26367 12.61133,0.002 0.0625,-4.26562 h -12.62695 z m 18.93945,0 -0.0684,4.26367 12.61328,0.002 0.082,-4.26562 h -12.62696 z m 18.93946,0 -0.0898,4.26367 12.61328,0.002 0.10352,-4.26562 h -12.62695 z m 18.93945,0 -0.10938,4.26367 12.61133,0.002 0.125,-4.26562 h -12.62695 z m 18.94141,0 -0.13282,4.26367 12.61133,0.002 0.14844,-4.26562 h -12.62695 z m 18.93945,0 -0.1543,4.26367 12.61328,0.002 0.16797,-4.26562 h -12.62695 z m 18.93945,0 -0.17578,4.26367 12.61328,0.002 0.18945,-4.26562 h -12.62695 z m 18.94141,0 -0.19727,4.26367 12.61133,0.002 0.21094,-4.26562 h -12.625 z m 18.93945,0 -0.21875,4.26367 12.61133,0.002 0.23437,-4.26562 h -12.62695 z m 18.93945,0 -0.24023,4.26367 12.61328,0.002 0.25391,-4.26562 h -12.62696 z m 18.93946,0 -0.26172,4.26367 12.61328,0.002 0.27539,-4.26562 h -12.62695 z m 18.9414,0 -0.2832,4.26367 12.61133,0.002 0.29687,-4.26562 h -12.625 z m 18.93946,0 -0.30469,4.26367 12.61133,0.002 0.32031,-4.26562 h -12.62695 z m 18.93945,0 -0.32617,4.26367 12.61328,0.002 0.33984,-4.26562 h -12.62695 z m 18.93945,0 -0.34765,4.26367 12.61328,0.002 0.36133,-4.26562 h -12.62696 z m 18.94141,0 -0.36914,4.26367 12.61133,0.002 0.38476,-4.26562 h -12.62695 z m 18.93945,0 -0.39062,4.26367 12.61328,0.002 0.40429,-4.26562 h -12.62695 z m 18.93945,0 -0.4121,4.26367 12.61328,0.002 0.42578,-4.26562 h -12.62696 z m 18.94141,0 -0.43359,4.26367 12.61133,0.002 0.44726,-4.26562 h -12.625 z m 18.93945,0 -0.45507,4.26367 12.61132,0.002 0.47071,-4.26562 h -12.62696 z m -813.714839,6.39257 0.466797,4.25 h 12.591796 l -0.455078,-4.25 z m 18.90625,0 0.447265,4.25 H 73.625 l -0.431641,-4.25 z m 18.908203,0 0.425781,4.25 h 12.589844 l -0.410157,-4.25 z m 18.908203,0 0.402344,4.25 h 12.591799 l -0.38867,-4.25 z m 18.908203,0 0.38086,4.25 h 12.5918 l -0.36914,-4.25 z m 18.90625,0 0.36133,4.25 h 12.5918 l -0.34766,-4.25 z m 18.9082,0 0.33985,4.25 h 12.58984 l -0.32422,-4.25 z m 18.90821,0 0.31836,4.25 h 12.58984 l -0.30274,-4.25 z m 18.9082,0 0.29492,4.25 h 12.5918 l -0.28125,-4.25 z m 18.90625,0 0.27539,4.25 h 12.5918 l -0.26172,-4.25 z m 18.9082,0 0.25391,4.25 h 12.5918 l -0.24024,-4.25 z m 18.90821,0 0.23242,4.25 h 12.58984 l -0.2168,-4.25 z m 18.9082,0 0.21094,4.25 H 281.375 l -0.19531,-4.25 z m 18.90625,0 0.18945,4.25 h 12.5918 l -0.17578,-4.25 z m 18.9082,0 0.16797,4.25 h 12.5918 l -0.1543,-4.25 z m 18.90821,0 0.14648,4.25 h 12.58984 l -0.13086,-4.25 z m 18.9082,0 0.125,4.25 h 12.58984 l -0.10937,-4.25 z m 18.9082,0 0.10352,4.25 h 12.58984 l -0.0898,-4.25 h -12.60352 z m 18.90625,0 0.082,4.25 h 12.5918 l -0.0684,-4.25 h -12.60547 z m 18.9082,0 0.0605,4.25 h 12.5918 l -0.0469,-4.25 h -12.60547 z m 18.90821,0 0.0391,4.25 h 12.58984 l -0.0234,-4.25 h -12.60547 z m 18.9082,0 0.0176,4.25 h 12.58984 l -0.004,-4.25 h -12.60352 z m 18.90625,0 -0.002,4.25 h 12.58984 l 0.0176,-4.25 h -12.60547 z m 18.9082,0 -0.0254,4.25 h 12.5918 l 0.0391,-4.25 h -12.60547 z m 18.90821,0 -0.0469,4.25 h 12.5918 l 0.0605,-4.25 h -12.60547 z m 18.9082,0 -0.0684,4.25 h 12.5918 l 0.082,-4.25 h -12.60547 z m 18.90625,0 -0.0879,4.25 h 12.58984 l 0.10352,-4.25 h -12.60547 z m 18.9082,0 -0.10937,4.25 h 12.58984 l 0.125,-4.25 z m 18.90821,0 -0.13282,4.25 h 12.5918 l 0.14648,-4.25 z m 18.9082,0 -0.1543,4.25 h 12.5918 l 0.16797,-4.25 z m 18.9082,0 -0.17578,4.25 h 12.58984 l 0.18946,-4.25 z m 18.90625,0 -0.19531,4.25 h 12.58984 l 0.21094,-4.25 z m 18.90821,0 -0.2168,4.25 h 12.58984 l 0.23242,-4.25 z m 18.9082,0 -0.24024,4.25 h 12.5918 l 0.25391,-4.25 z m 18.9082,0 -0.26172,4.25 h 12.5918 l 0.27344,-4.25 z m 18.90625,0 -0.28125,4.25 h 12.58985 l 0.29687,-4.25 z m 18.90821,0 -0.30274,4.25 h 12.58984 l 0.31836,-4.25 z m 18.9082,0 -0.32422,4.25 h 12.58984 l 0.33985,-4.25 z m 18.9082,0 -0.34766,4.25 h 12.5918 l 0.36133,-4.25 z m 18.90625,0 -0.36719,4.25 h 12.5918 l 0.38086,-4.25 z m 18.9082,0 -0.38867,4.25 h 12.5918 l 0.40234,-4.25 z m 18.90821,0 -0.41016,4.25 h 12.58984 l 0.42579,-4.25 z m 18.9082,0 -0.43164,4.25 h 12.58984 l 0.44727,-4.25 z m 18.9082,0 -0.45507,4.25 h 12.59179 l 0.4668,-4.25 z m -812.332028,6.3711 0.464844,4.23437 h 12.570313 l -0.453125,-4.23437 z m 18.875,0 0.445313,4.23437 h 12.568359 l -0.429687,-4.23437 z m 18.875,0 0.423829,4.23437 h 12.570312 l -0.410156,-4.23437 z m 18.876954,0 0.40039,4.23437 h 12.570314 l -0.38867,-4.23437 z m 18.875004,0 0.38085,4.23437 h 12.56836 l -0.36523,-4.23437 z m 18.875,0 0.35937,4.23437 h 12.57031 l -0.3457,-4.23437 z m 18.875,0 0.33984,4.23437 h 12.56836 l -0.32422,-4.23437 z m 18.87695,0 0.3164,4.23437 h 12.57032 l -0.30274,-4.23437 z m 18.875,0 0.29492,4.23437 h 12.57031 l -0.28125,-4.23437 z m 18.875,0 0.27539,4.23437 h 12.56836 l -0.25977,-4.23437 z m 18.87695,0 0.25195,4.23437 h 12.57032 l -0.23828,-4.23437 z m 18.875,0 0.23047,4.23437 h 12.57031 l -0.21679,-4.23437 z m 18.875,0 0.21094,4.23437 h 12.56836 l -0.19531,-4.23437 z m 18.87695,0 0.1875,4.23437 h 12.57032 l -0.17383,-4.23437 z m 18.875,0 0.16797,4.23437 h 12.56836 l -0.15234,-4.23437 z m 18.875,0 0.14649,4.23437 h 12.57031 l -0.13281,-4.23437 z m 18.87696,0 0.12304,4.23437 h 12.57032 l -0.10938,-4.23437 z m 18.875,0 0.10351,4.23437 h 12.56836 l -0.0879,-4.23437 h -12.58398 z m 18.875,0 0.082,4.23437 h 12.57031 l -0.0684,-4.23437 h -12.58398 z m 18.87695,0 0.0606,4.23437 h 12.56836 l -0.0449,-4.23437 H 401.0196 Z m 18.875,0 0.0391,4.23437 h 12.57032 l -0.0254,-4.23437 h -12.58399 z m 18.875,0 0.0176,4.23437 h 12.57031 l -0.004,-4.23437 h -12.58399 z m 18.87695,0 -0.004,4.23437 h 12.56836 l 0.0195,-4.23437 h -12.58399 z m 18.875,0 -0.0254,4.23437 h 12.57032 l 0.0391,-4.23437 h -12.58399 z m 18.875,0 -0.0449,4.23437 h 12.56836 l 0.0606,-4.23437 h -12.58399 z m 18.87696,0 -0.0684,4.23437 h 12.57031 l 0.0801,-4.23437 h -12.58203 z m 18.875,0 -0.0899,4.23437 h 12.57032 l 0.10351,-4.23437 h -12.58398 z m 18.875,0 -0.10938,4.23437 h 12.56836 l 0.125,-4.23437 z m 18.87695,0 -0.13281,4.23437 h 12.57031 l 0.14453,-4.23437 z m 18.875,0 -0.15234,4.23437 h 12.56836 l 0.16797,-4.23437 z m 18.875,0 -0.17383,4.23437 h 12.57032 l 0.1875,-4.23437 z m 18.87695,0 -0.19726,4.23437 h 12.57031 l 0.20899,-4.23437 z m 18.875,0 -0.21679,4.23437 h 12.56836 l 0.23242,-4.23437 z m 18.875,0 -0.23828,4.23437 h 12.57032 l 0.25195,-4.23437 z m 18.87696,0 -0.25977,4.23437 h 12.56836 l 0.27344,-4.23437 z m 18.875,0 -0.28125,4.23437 h 12.57031 l 0.29492,-4.23437 z m 18.875,0 -0.30274,4.23437 h 12.57032 l 0.3164,-4.23437 z m 18.87695,0 -0.32422,4.23437 h 12.56836 l 0.33789,-4.23437 z m 18.875,0 -0.3457,4.23437 h 12.57031 l 0.35937,-4.23437 z m 18.875,0 -0.36523,4.23437 h 12.56836 l 0.38085,-4.23437 z m 18.87695,0 -0.38867,4.23437 h 12.57031 l 0.40039,-4.23437 z m 18.875,0 -0.41015,4.23437 h 12.57031 l 0.42383,-4.23437 z m 18.875,0 -0.42968,4.23437 h 12.56836 l 0.44531,-4.23437 z m 18.87696,0 -0.45313,4.23437 h 12.57031 l 0.46485,-4.23437 z m -810.955082,6.34765 0.464844,4.22071 H 56.09375 l -0.451172,-4.22071 z m 18.84375,0 0.44336,4.22071 h 12.548828 l -0.429688,-4.22071 z m 18.84375,0 0.421875,4.22071 h 12.548828 l -0.408203,-4.22071 z m 18.84375,0 0.400392,4.22071 h 12.54883 l -0.38672,-4.22071 z m 18.843752,0 0.3789,4.22071 h 12.54883 l -0.36523,-4.22071 z m 18.84375,0 0.35742,4.22071 h 12.54883 l -0.34375,-4.22071 z m 18.84375,0 0.33594,4.22071 h 12.54882 l -0.32226,-4.22071 z m 18.84375,0 0.31445,4.22071 h 12.54883 l -0.30078,-4.22071 z m 18.84375,0 0.29492,4.22071 h 12.54688 l -0.2793,-4.22071 z m 18.84375,0 0.27344,4.22071 h 12.54687 l -0.25781,-4.22071 z m 18.84375,0 0.25195,4.22071 h 12.54688 l -0.23633,-4.22071 z m 18.84375,0 0.23047,4.22071 h 12.54687 l -0.21484,-4.22071 z m 18.84375,0 0.20898,4.22071 h 12.54688 l -0.19532,-4.22071 z m 18.8418,0 0.18945,4.22071 h 12.54687 l -0.17382,-4.22071 z m 18.84374,0 0.16797,4.22071 h 12.54688 l -0.15235,-4.22071 z m 18.84376,0 0.14648,4.22071 h 12.54687 l -0.13085,-4.22071 z m 18.84374,0 0.125,4.22071 h 12.54883 l -0.11133,-4.22071 z m 18.84376,0 0.10351,4.22071 h 12.54883 l -0.0898,-4.22071 h -12.5625 z m 18.84374,0 0.082,4.22071 h 12.54882 l -0.0684,-4.22071 h -12.5625 z m 18.84376,0 0.0605,4.22071 h 12.54883 l -0.0469,-4.22071 h -12.5625 z m 18.84374,0 0.0391,4.22071 h 12.54883 l -0.0254,-4.22071 h -12.5625 z m 18.84376,0 0.0176,4.22071 h 12.54883 l -0.004,-4.22071 h -12.5625 z m 18.84374,0 -0.004,4.22071 h 12.54883 l 0.0176,-4.22071 h -12.5625 z m 18.84376,0 -0.0254,4.22071 h 12.54883 l 0.0391,-4.22071 h -12.5625 z m 18.84374,0 -0.0469,4.22071 h 12.54883 l 0.0605,-4.22071 h -12.5625 z m 18.84376,0 -0.0684,4.22071 h 12.54882 l 0.082,-4.22071 h -12.5625 z m 18.84374,0 -0.0898,4.22071 h 12.54883 l 0.10351,-4.22071 h -12.5625 z m 18.84376,0 -0.11133,4.22071 h 12.54883 l 0.125,-4.22071 z m 18.84374,0 -0.13281,4.22071 h 12.54883 l 0.14453,-4.22071 z m 18.84376,0 -0.1543,4.22071 h 12.54883 l 0.16601,-4.22071 z m 18.84179,0 -0.17383,4.22071 h 12.54883 l 0.1875,-4.22071 z m 18.84375,0 -0.19336,4.22071 h 12.54688 l 0.20898,-4.22071 z m 18.84375,0 -0.21484,4.22071 h 12.54687 l 0.23047,-4.22071 z m 18.84375,0 -0.23633,4.22071 h 12.54688 l 0.25195,-4.22071 z m 18.84375,0 -0.25781,4.22071 h 12.54687 l 0.27344,-4.22071 z m 18.84375,0 -0.2793,4.22071 H 714.875 l 0.29492,-4.22071 z m 18.84375,0 -0.30078,4.22071 h 12.54688 l 0.3164,-4.22071 z m 18.84375,0 -0.32226,4.22071 h 12.54687 l 0.33789,-4.22071 z m 18.84375,0 -0.34375,4.22071 h 12.54883 l 0.35742,-4.22071 z m 18.84375,0 -0.36523,4.22071 h 12.54883 l 0.3789,-4.22071 z m 18.84375,0 -0.38672,4.22071 h 12.54883 l 0.40039,-4.22071 z m 18.84375,0 -0.4082,4.22071 h 12.54883 l 0.42187,-4.22071 z m 18.84375,0 -0.42969,4.22071 h 12.54883 l 0.44336,-4.22071 z m 18.84375,0 -0.45117,4.22071 h 12.54883 l 0.46484,-4.22071 z m -809.580076,6.32813 0.46289,4.20508 h 12.527344 l -0.449219,-4.20508 z m 18.8125,0 0.441406,4.20508 h 12.527344 l -0.427735,-4.20508 z m 18.810547,0 0.421875,4.20508 h 12.52539 l -0.40625,-4.20508 z m 18.812499,0 0.39844,4.20508 h 12.52734 l -0.38476,-4.20508 z m 18.81055,0 0.3789,4.20508 h 12.52735 l -0.36524,-4.20508 z m 18.8125,0 0.35742,4.20508 h 12.52734 l -0.34375,-4.20508 z m 18.8125,0 0.33398,4.20508 h 12.52735 l -0.32032,-4.20508 z m 18.81054,0 0.31446,4.20508 h 12.52734 L 188,387.04883 Z m 18.8125,0 0.29297,4.20508 h 12.52735 l -0.2793,-4.20508 z m 18.81055,0 0.27344,4.20508 h 12.52734 l -0.25976,-4.20508 z m 18.8125,0 0.25,4.20508 h 12.52735 l -0.23633,-4.20508 z m 18.8125,0 0.22852,4.20508 h 12.52734 l -0.21484,-4.20508 z m 18.81055,0 0.20898,4.20508 h 12.52735 l -0.19532,-4.20508 z m 18.8125,0 0.1875,4.20508 h 12.52539 l -0.17188,-4.20508 z m 18.81054,0 0.16602,4.20508 h 12.52734 l -0.15234,-4.20508 z m 18.8125,0 0.14454,4.20508 H 338.625 l -0.13086,-4.20508 z m 18.8125,0 0.12305,4.20508 h 12.52735 l -0.10938,-4.20508 z m 18.81055,0 0.10352,4.20508 h 12.52539 l -0.0879,-4.20508 h -12.54102 z m 18.8125,0 0.0801,4.20508 h 12.52734 l -0.0664,-4.20508 h -12.54102 z m 18.81055,0 0.0605,4.20508 h 12.52734 l -0.0469,-4.20508 h -12.54101 z m 18.8125,0 0.0391,4.20508 h 12.52734 l -0.0254,-4.20508 h -12.54101 z m 18.8125,0 0.0176,4.20508 h 12.52539 l -0.002,-4.20508 H 438.8242 Z m 18.81055,0 -0.004,4.20508 h 12.52734 l 0.0176,-4.20508 H 457.6347 Z m 18.8125,0 -0.0254,4.20508 h 12.52734 l 0.0391,-4.20508 H 476.4473 Z m 18.81054,0 -0.0449,4.20508 h 12.52734 l 0.0586,-4.20508 h -12.54102 z m 18.8125,0 -0.0664,4.20508 h 12.52539 l 0.082,-4.20508 h -12.54102 z m 18.8125,0 -0.0898,4.20508 h 12.52734 l 0.10352,-4.20508 h -12.54102 z m 18.81055,0 -0.10938,4.20508 h 12.52735 l 0.12305,-4.20508 z m 18.8125,0 -0.13086,4.20508 h 12.52734 l 0.14454,-4.20508 z m 18.81055,0 -0.15039,4.20508 h 12.52539 l 0.16797,-4.20508 z m 18.8125,0 -0.17383,4.20508 h 12.52734 l 0.1875,-4.20508 z m 18.8125,0 -0.19532,4.20508 h 12.52735 l 0.20898,-4.20508 z m 18.81054,0 -0.21484,4.20508 h 12.52734 l 0.22852,-4.20508 z m 18.8125,0 -0.23633,4.20508 h 12.5254 l 0.25195,-4.20508 z m 18.81055,0 -0.25781,4.20508 h 12.52734 l 0.27344,-4.20508 z m 18.8125,0 -0.2793,4.20508 h 12.52735 l 0.29297,-4.20508 z m 18.8125,0 -0.30078,4.20508 h 12.52734 l 0.31446,-4.20508 z m 18.81055,0 -0.32032,4.20508 h 12.52539 l 0.33594,-4.20508 z m 18.8125,0 -0.34375,4.20508 h 12.52734 l 0.35742,-4.20508 z m 18.8125,0 -0.36524,4.20508 h 12.52735 l 0.3789,-4.20508 z m 18.81054,0 -0.38476,4.20508 h 12.52734 l 0.39844,-4.20508 z m 18.8125,0 -0.40625,4.20508 h 12.52539 l 0.42188,-4.20508 z m 18.81055,0 -0.42773,4.20508 h 12.52734 l 0.44141,-4.20508 z m 18.8125,0 -0.44922,4.20508 h 12.52735 l 0.46289,-4.20508 z m -808.210937,6.30469 0.462891,4.19336 h 12.505859 l -0.447265,-4.19336 z m 18.78125,0 0.439453,4.19336 h 12.50586 l -0.425782,-4.19336 z m 18.779297,0 0.419922,4.19336 h 12.505859 l -0.40625,-4.19336 z m 18.7793,0 0.39843,4.19336 h 12.50586 l -0.38476,-4.19336 z m 18.78125,0 0.37695,4.19336 h 12.50586 l -0.36328,-4.19336 z m 18.77929,0 0.35547,4.19336 h 12.50586 l -0.3418,-4.19336 z m 18.7793,0 0.33594,4.19336 h 12.50586 l -0.32031,-4.19336 z m 18.78125,0 0.3125,4.19336 H 188.75 l -0.29883,-4.19336 z m 18.7793,0 0.29297,4.19336 h 12.50586 l -0.2793,-4.19336 z m 18.77929,0 0.27149,4.19336 h 12.50586 l -0.25781,-4.19336 z m 18.78125,0 0.25,4.19336 h 12.50586 l -0.23632,-4.19336 z m 18.7793,0 0.22852,4.19336 h 12.50586 l -0.21485,-4.19336 z m 18.7793,0 0.20898,4.19336 h 12.50586 l -0.19531,-4.19336 z m 18.78125,0 0.18555,4.19336 h 12.50585 l -0.17187,-4.19336 z m 18.77929,0 0.16602,4.19336 h 12.50586 l -0.15234,-4.19336 z m 18.7793,0 0.14453,4.19336 h 12.50586 l -0.13086,-4.19336 z m 18.78125,0 0.12305,4.19336 h 12.50586 l -0.10938,-4.19336 z m 18.7793,0 0.10156,4.19336 h 12.50586 l -0.0879,-4.19336 h -12.51953 z m 18.7793,0 0.082,4.19336 h 12.50586 l -0.0684,-4.19336 H 382.5097 Z m 18.77929,0 0.0605,4.19336 h 12.50586 l -0.0449,-4.19336 h -12.52149 z m 18.78125,0 0.0391,4.19336 h 12.50585 l -0.0254,-4.19336 h -12.51953 z m 18.7793,0 0.0176,4.19336 h 12.50586 l -0.004,-4.19336 h -12.51953 z m 18.78125,0 -0.004,4.19336 h 12.50586 l 0.0176,-4.19336 h -12.51953 z m 18.7793,0 -0.0254,4.19336 h 12.50585 l 0.0391,-4.19336 h -12.51953 z m 18.77929,0 -0.0449,4.19336 h 12.50586 l 0.0586,-4.19336 h -12.51953 z m 18.7793,0 -0.0664,4.19336 h 12.50586 l 0.082,-4.19336 h -12.52148 z m 18.78125,0 -0.0879,4.19336 h 12.50586 l 0.10156,-4.19336 h -12.51953 z m 18.7793,0 -0.10938,4.19336 h 12.50586 l 0.12305,-4.19336 z m 18.77929,0 -0.1289,4.19336 h 12.50586 l 0.14453,-4.19336 z m 18.78125,0 -0.15234,4.19336 h 12.50586 l 0.16602,-4.19336 z m 18.7793,0 -0.17187,4.19336 h 12.50585 l 0.18555,-4.19336 z m 18.7793,0 -0.19336,4.19336 h 12.50586 l 0.20898,-4.19336 z m 18.78125,0 -0.21485,4.19336 h 12.50586 l 0.22852,-4.19336 z m 18.77929,0 -0.23632,4.19336 h 12.50586 l 0.25,-4.19336 z m 18.7793,0 -0.25586,4.19336 h 12.50586 l 0.27149,-4.19336 z m 18.78125,0 -0.2793,4.19336 h 12.50586 l 0.29297,-4.19336 z m 18.7793,0 -0.29883,4.19336 h 12.50586 l 0.3125,-4.19336 z m 18.77929,0 -0.32031,4.19336 h 12.50586 l 0.33594,-4.19336 z m 18.78126,0 -0.3418,4.19336 h 12.50586 l 0.35547,-4.19336 z m 18.77929,0 -0.36328,4.19336 h 12.50586 l 0.37695,-4.19336 z m 18.7793,0 -0.38281,4.19336 h 12.50586 l 0.39843,-4.19336 z m 18.78125,0 -0.40625,4.19336 h 12.50586 l 0.41992,-4.19336 z m 18.7793,0 -0.42579,4.19336 h 12.50586 l 0.43946,-4.19336 z m 18.77929,0 -0.44726,4.19336 h 12.50586 l 0.46289,-4.19336 z m -806.843748,6.28515 0.458985,4.17774 h 12.484375 l -0.445313,-4.17774 z m 18.748047,0 0.4375,4.17774 h 12.486329 l -0.425782,-4.17774 z m 18.748047,0 0.417969,4.17774 H 95.5625 l -0.404297,-4.17774 z m 18.748044,0 0.39649,4.17774 h 12.48437 l -0.38281,-4.17774 z m 18.74805,0 0.375,4.17774 h 12.48437 l -0.36132,-4.17774 z m 18.74805,0 0.35547,4.17774 h 12.48437 l -0.3418,-4.17774 z m 18.74804,0 0.33399,4.17774 h 12.48437 l -0.31836,-4.17774 z m 18.74805,0 0.3125,4.17774 h 12.48438 l -0.29688,-4.17774 z m 18.74805,0 0.29101,4.17774 h 12.48633 l -0.27734,-4.17774 z m 18.74804,0 0.27149,4.17774 h 12.48437 l -0.25586,-4.17774 z m 18.74805,0 0.25,4.17774 h 12.48438 l -0.23438,-4.17774 z m 18.75,0 0.22656,4.17774 h 12.48633 l -0.21484,-4.17774 z m 18.74805,0 0.20703,4.17774 h 12.48437 l -0.19336,-4.17774 z m 18.74804,0 0.18555,4.17774 h 12.48438 l -0.17188,-4.17774 z m 18.74805,0 0.16406,4.17774 h 12.48633 l -0.15234,-4.17774 z m 18.74805,0 0.14453,4.17774 h 12.48437 l -0.13085,-4.17774 z m 18.74805,0 0.12304,4.17774 h 12.48438 l -0.10742,-4.17774 z m 18.74804,0 0.10157,4.17774 h 12.48632 l -0.0879,-4.17774 h -12.5 z m 18.74805,0 0.082,4.17774 h 12.48438 l -0.0664,-4.17774 h -12.5 z m 18.74805,0 0.0605,4.17774 h 12.48438 l -0.0449,-4.17774 h -12.5 z m 18.75,0 0.0371,4.17774 h 12.48632 l -0.0254,-4.17774 h -12.49804 z m 18.74804,0 0.0176,4.17774 h 12.48438 l -0.004,-4.17774 h -12.49805 z m 18.74805,0 -0.004,4.17774 h 12.48438 l 0.0176,-4.17774 h -12.49805 z m 18.74805,0 -0.0254,4.17774 h 12.48437 l 0.0391,-4.17774 h -12.49804 z m 18.74804,0 -0.0449,4.17774 h 12.48438 l 0.0586,-4.17774 h -12.49805 z m 18.74805,0 -0.0664,4.17774 h 12.48438 l 0.082,-4.17774 h -12.5 z m 18.74805,0 -0.0879,4.17774 h 12.48437 l 0.10352,-4.17774 h -12.5 z m 18.74804,0 -0.10742,4.17774 h 12.48438 l 0.12304,-4.17774 z m 18.74805,0 -0.1289,4.17774 h 12.48437 l 0.14453,-4.17774 z m 18.75,0 -0.15234,4.17774 h 12.48437 l 0.16602,-4.17774 z m 18.74805,0 -0.17188,4.17774 h 12.48438 l 0.18555,-4.17774 z m 18.74805,0 -0.19336,4.17774 h 12.48437 l 0.20703,-4.17774 z m 18.74804,0 -0.21484,4.17774 h 12.48437 l 0.22852,-4.17774 z m 18.74805,0 -0.23438,4.17774 h 12.48438 l 0.24805,-4.17774 z m 18.74805,0 -0.25586,4.17774 h 12.48437 l 0.26953,-4.17774 z m 18.74804,0 -0.27734,4.17774 h 12.48437 l 0.29297,-4.17774 z m 18.74805,0 -0.29688,4.17774 h 12.48438 l 0.3125,-4.17774 z m 18.74805,0 -0.31836,4.17774 h 12.48437 l 0.33399,-4.17774 z m 18.75,0 -0.3418,4.17774 h 12.48437 l 0.35547,-4.17774 z m 18.74804,0 -0.36132,4.17774 h 12.48437 l 0.375,-4.17774 z m 18.74805,0 -0.38281,4.17774 h 12.48437 l 0.39649,-4.17774 z m 18.74805,0 -0.4043,4.17774 h 12.48438 l 0.41796,-4.17774 z m 18.74804,0 -0.42578,4.17774 h 12.48633 l 0.4375,-4.17774 z m 18.74805,0 -0.44531,4.17774 h 12.48437 l 0.45899,-4.17774 z"
         id="polygon10002" /></g><!-- end Cube.001 --></g><path
     id="rect18"
     style="fill:#ff0000;stroke:#000000;stroke-width:8;stroke-dasharray:none"
     d="m 388.27873,307.21887 -10e-6,-112 84,56 z"
     sodipodi:nodetypes="cccc" /><rect
     style="fill:#000000;stroke:none;stroke-width:20.9851"
     id="rect19"
     width="400"
     height="20"
     x="222.27872"
     y="341.18454" /><rect
     style="fill:#4d4d4d;stroke:none;stroke-width:23.3518"
     id="rect20"
     width="25"
     height="70"
     x="509.35022"
     y="316.18454" /><rect
     style="fill:none;stroke:#4d4d4d;stroke-width:19.0562"
     id="rect23"
     width="490.94165"
     height="267.81674"
     x="176.80789"
     y="147.14546"
     ry="55.557667" /></g></svg>
